<svg width="800" height="321" viewBox="0 0 800 321" fill="none" xmlns="http://www.w3.org/2000/svg">
<path d="M140.153 0.971866L141.163 0.81024L141.026 -0.0511475H140.153V0.971866ZM197.442 359.028V360.051H198.642L198.452 358.867L197.442 359.028ZM140.665 359.028L139.653 359.18L139.783 360.051H140.665V359.028ZM130.946 294.067L131.958 293.915L131.828 293.044H130.946V294.067ZM61.8926 294.067V293.044H61.0112L60.8808 293.915L61.8926 294.067ZM52.1739 359.028V360.051H53.0552L53.1856 359.18L52.1739 359.028ZM0.51148 359.028L-0.498689 358.867L-0.688232 360.051H0.51148V359.028ZM57.8005 0.971866V-0.0511475H56.9282L56.7904 0.81024L57.8005 0.971866ZM96.1637 64.399L97.1754 64.2475H95.1519L96.1637 64.399ZM69.0537 245.473L68.0419 245.322L67.8661 246.496H69.0537V245.473ZM123.274 245.473V246.496H124.461L124.285 245.322L123.274 245.473ZM139.144 1.13349L196.433 359.19L198.452 358.867L141.163 0.81024L139.144 1.13349ZM197.442 358.005H140.665V360.051H197.442V358.005ZM141.677 358.877L131.958 293.915L129.934 294.218L139.653 359.18L141.677 358.877ZM130.946 293.044H61.8926V295.09H130.946V293.044ZM60.8808 293.915L51.1621 358.877L53.1856 359.18L62.9043 294.218L60.8808 293.915ZM52.1739 358.005H0.51148V360.051H52.1739V358.005ZM1.52165 359.19L58.8106 1.13349L56.7904 0.81024L-0.498689 358.867L1.52165 359.19ZM57.8005 1.99488H140.153V-0.0511475H57.8005V1.99488ZM95.1519 64.2475L68.0419 245.322L70.0654 245.625L97.1754 64.5504L95.1519 64.2475ZM69.0537 246.496H123.274V244.45H69.0537V246.496ZM124.285 245.322L97.1754 64.2475L95.1519 64.5504L122.262 245.625L124.285 245.322ZM279.911 224.501V223.478H278.888V224.501H279.911ZM279.911 359.028V360.051H280.934V359.028H279.911ZM223.645 359.028H222.622V360.051H223.645V359.028ZM223.645 0.971866V-0.0511475H222.622V0.971866H223.645ZM279.911 52.1228V51.0998H278.888V52.1228H279.911ZM279.911 173.35H278.888V174.373H279.911V173.35ZM326.97 165.678L326.222 164.98L326.21 164.993L326.197 165.008L326.97 165.678ZM326.97 59.7954L326.197 60.4654L326.21 60.4796L326.222 60.4934L326.97 59.7954ZM306.509 1.99488C334.3 1.99488 354.959 9.32108 368.683 23.7985C382.416 38.2861 389.374 60.1104 389.374 89.4629H391.42C391.42 59.8214 384.396 37.4002 370.168 22.3908C355.929 7.37116 334.644 -0.0511475 306.509 -0.0511475V1.99488ZM389.374 89.4629V136.01H391.42V89.4629H389.374ZM389.374 136.01C389.374 165.363 382.416 187.187 368.683 201.675C354.959 216.152 334.3 223.478 306.509 223.478V225.524C334.644 225.524 355.929 218.102 370.168 203.082C384.396 188.073 391.42 165.652 391.42 136.01H389.374ZM306.509 223.478H279.911V225.524H306.509V223.478ZM278.888 224.501V359.028H280.934V224.501H278.888ZM279.911 358.005H223.645V360.051H279.911V358.005ZM224.668 359.028V0.971866H222.622V359.028H224.668ZM223.645 1.99488H306.509V-0.0511475H223.645V1.99488ZM306.509 51.0998H279.911V53.1458H306.509V51.0998ZM278.888 52.1228V173.35H280.934V52.1228H278.888ZM279.911 174.373H306.509V172.327H279.911V174.373ZM306.509 174.373C315.902 174.373 323.053 171.76 327.743 166.348L326.197 165.008C322.021 169.826 315.532 172.327 306.509 172.327V174.373ZM327.718 166.375C332.761 160.972 335.154 151.947 335.154 139.591H333.108C333.108 151.787 330.726 160.153 326.222 164.98L327.718 166.375ZM335.154 139.591V85.8824H333.108V139.591H335.154ZM335.154 85.8824C335.154 73.5259 332.761 64.5012 327.718 59.0974L326.222 60.4934C330.726 65.3197 333.108 73.6864 333.108 85.8824H335.154ZM327.743 59.1254C323.053 53.7134 315.902 51.0998 306.509 51.0998V53.1458C315.532 53.1458 322.021 55.6473 326.197 60.4654L327.743 59.1254ZM475.224 52.1228V51.0998H474.201V52.1228H475.224ZM475.224 151.867H474.201V152.89H475.224V151.867ZM552.461 151.867H553.484V150.844H552.461V151.867ZM552.461 203.018V204.041H553.484V203.018H552.461ZM475.224 203.018V201.995H474.201V203.018H475.224ZM475.224 307.877H474.201V308.9H475.224V307.877ZM572.41 307.877H573.433V306.854H572.41V307.877ZM572.41 359.028V360.051H573.433V359.028H572.41ZM418.958 359.028H417.935V360.051H418.958V359.028ZM418.958 0.971866V-0.0511475H417.935V0.971866H418.958ZM572.41 0.971866H573.433V-0.0511475H572.41V0.971866ZM572.41 52.1228V53.1458H573.433V52.1228H572.41ZM474.201 52.1228V151.867H476.247V52.1228H474.201ZM475.224 152.89H552.461V150.844H475.224V152.89ZM551.438 151.867V203.018H553.484V151.867H551.438ZM552.461 201.995H475.224V204.041H552.461V201.995ZM474.201 203.018V307.877H476.247V203.018H474.201ZM475.224 308.9H572.41V306.854H475.224V308.9ZM571.387 307.877V359.028H573.433V307.877H571.387ZM572.41 358.005H418.958V360.051H572.41V358.005ZM419.981 359.028V0.971866H417.935V359.028H419.981ZM418.958 1.99488H572.41V-0.0511475H418.958V1.99488ZM571.387 0.971866V52.1228H573.433V0.971866H571.387ZM572.41 51.0998H475.224V53.1458H572.41V51.0998ZM742.827 0.971866V-0.0511475H742.087L741.856 0.651752L742.827 0.971866ZM795 0.971866L795.97 1.29965L796.427 -0.0511475H795V0.971866ZM736.177 174.885L735.208 174.558L735.097 174.887L735.209 175.215L736.177 174.885ZM799.093 359.028V360.051H800.524L800.061 358.698L799.093 359.028ZM739.758 359.028L738.785 359.344L739.015 360.051H739.758V359.028ZM693.722 217.34L694.695 217.024L693.728 214.046L692.75 217.021L693.722 217.34ZM647.174 359.028V360.051H647.915L648.146 359.347L647.174 359.028ZM594.489 359.028L593.521 358.698L593.059 360.051H594.489V359.028ZM657.405 174.885L658.373 175.215L658.485 174.887L658.374 174.558L657.405 174.885ZM598.581 0.971866V-0.0511475H597.155L597.612 1.29965L598.581 0.971866ZM656.893 0.971866L657.867 0.658569L657.639 -0.0511475H656.893V0.971866ZM699.348 132.941L698.374 133.254L699.337 136.246L700.32 133.261L699.348 132.941ZM742.827 1.99488H795V-0.0511475H742.827V1.99488ZM794.032 0.644087L735.208 174.558L737.147 175.212L795.97 1.29965L794.032 0.644087ZM735.209 175.215L798.125 359.359L800.061 358.698L737.146 174.554L735.209 175.215ZM799.093 358.005H739.758V360.051H799.093V358.005ZM740.73 358.712L694.695 217.024L692.749 217.656L738.785 359.344L740.73 358.712ZM692.75 217.021L646.203 358.709L648.146 359.347L694.694 217.659L692.75 217.021ZM647.174 358.005H594.489V360.051H647.174V358.005ZM595.458 359.359L658.373 175.215L656.437 174.554L593.521 358.698L595.458 359.359ZM658.374 174.558L599.551 0.644087L597.612 1.29965L656.436 175.212L658.374 174.558ZM598.581 1.99488H656.893V-0.0511475H598.581V1.99488ZM655.919 1.28516L698.374 133.254L700.322 132.628L657.867 0.658569L655.919 1.28516ZM700.32 133.261L743.798 1.29198L741.856 0.651752L698.377 132.621L700.32 133.261Z" fill="url(#paint0_linear_50_701)" fill-opacity="0.4"/>
<defs>
<linearGradient id="paint0_linear_50_701" x1="463.427" y1="378.977" x2="470.077" y2="-28.6956" gradientUnits="userSpaceOnUse">
<stop stop-color="#95BFFF" stop-opacity="0.13"/>
<stop offset="1" stop-color="#F5F7FF" stop-opacity="0.61"/>
</linearGradient>
</defs>
</svg>
