<svg width="25" height="24" viewBox="0 0 25 24" fill="none" xmlns="http://www.w3.org/2000/svg">
<g id="material-symbols:arrow-drop-down-rounded">
<path id="Vector" d="M11.975 14.475L8.34995 10.85C8.29995 10.8 8.26262 10.746 8.23795 10.688C8.21328 10.63 8.20062 10.5673 8.19995 10.5C8.19995 10.3667 8.24595 10.25 8.33795 10.15C8.42995 10.05 8.55062 10 8.69995 10H16.3C16.45 10 16.571 10.05 16.663 10.15C16.755 10.25 16.8006 10.3667 16.8 10.5C16.8 10.5333 16.75 10.65 16.65 10.85L13.025 14.475C12.9416 14.5583 12.8583 14.6167 12.775 14.65C12.6916 14.6833 12.6 14.7 12.5 14.7C12.4 14.7 12.3083 14.6833 12.225 14.65C12.1416 14.6167 12.0583 14.5583 11.975 14.475Z" fill="white"/>
</g>
</svg>
