<svg width="17" height="16" viewBox="0 0 17 16" fill="none" xmlns="http://www.w3.org/2000/svg">
<g id="material-symbols:arrow-back-rounded">
<path id="Vector" d="M5.71687 8.66666L8.98354 11.9333C9.11687 12.0667 9.18087 12.2222 9.17554 12.4C9.17021 12.5778 9.10065 12.7333 8.96687 12.8667C8.83354 12.9889 8.67798 13.0529 8.50021 13.0587C8.32243 13.0644 8.16687 13.0004 8.03354 12.8667L3.63354 8.46666C3.56687 8.4 3.51954 8.32777 3.49154 8.25C3.46354 8.17222 3.44976 8.08889 3.45021 8C3.45021 7.91111 3.46421 7.82777 3.49221 7.75C3.52021 7.67222 3.56732 7.6 3.63354 7.53333L8.03354 3.13333C8.15576 3.01111 8.30865 2.95 8.49221 2.95C8.67576 2.95 8.83398 3.01111 8.96687 3.13333C9.10021 3.26666 9.16687 3.42511 9.16687 3.60866C9.16687 3.79222 9.10021 3.95044 8.96687 4.08333L5.71687 7.33333H13.1669C13.3558 7.33333 13.5142 7.39733 13.6422 7.52533C13.7702 7.65333 13.834 7.81155 13.8335 8C13.8335 8.18889 13.7695 8.34733 13.6415 8.47533C13.5135 8.60333 13.3553 8.66711 13.1669 8.66666H5.71687Z" fill="white"/>
</g>
</svg>
