<svg width="40" height="41" viewBox="0 0 40 41" fill="none" xmlns="http://www.w3.org/2000/svg">
<g id="material-symbols:menu-open-rounded">
<path id="Vector" d="M6.66667 30.5C6.19445 30.5 5.79834 30.34 5.47834 30.02C5.15834 29.7 4.99889 29.3045 5.00001 28.8333C5.00001 28.3611 5.16001 27.965 5.48001 27.645C5.80001 27.325 6.19556 27.1656 6.66667 27.1667H25C25.4722 27.1667 25.8683 27.3267 26.1883 27.6467C26.5083 27.9667 26.6678 28.3622 26.6667 28.8333C26.6667 29.3056 26.5067 29.7017 26.1867 30.0217C25.8667 30.3417 25.4711 30.5011 25 30.5H6.66667ZM31.5 27.6667L25.5 21.6667C25.1667 21.3333 25 20.9445 25 20.5C25 20.0556 25.1667 19.6667 25.5 19.3333L31.5 13.3333C31.8056 13.0278 32.1945 12.875 32.6667 12.875C33.1389 12.875 33.5278 13.0278 33.8333 13.3333C34.1389 13.6389 34.2917 14.0278 34.2917 14.5C34.2917 14.9722 34.1389 15.3611 33.8333 15.6667L29 20.5L33.8333 25.3333C34.1389 25.6389 34.2917 26.0278 34.2917 26.5C34.2917 26.9722 34.1389 27.3611 33.8333 27.6667C33.5278 27.9722 33.1389 28.125 32.6667 28.125C32.1945 28.125 31.8056 27.9722 31.5 27.6667ZM6.66667 22.1667C6.19445 22.1667 5.79834 22.0067 5.47834 21.6867C5.15834 21.3667 4.99889 20.9711 5.00001 20.5C5.00001 20.0278 5.16001 19.6317 5.48001 19.3117C5.80001 18.9917 6.19556 18.8322 6.66667 18.8333H20C20.4722 18.8333 20.8683 18.9933 21.1883 19.3133C21.5083 19.6333 21.6678 20.0289 21.6667 20.5C21.6667 20.9722 21.5067 21.3683 21.1867 21.6883C20.8667 22.0083 20.4711 22.1678 20 22.1667H6.66667ZM6.66667 13.8333C6.19445 13.8333 5.79834 13.6733 5.47834 13.3533C5.15834 13.0333 4.99889 12.6378 5.00001 12.1667C5.00001 11.6945 5.16001 11.2983 5.48001 10.9783C5.80001 10.6583 6.19556 10.4989 6.66667 10.5H25C25.4722 10.5 25.8683 10.66 26.1883 10.98C26.5083 11.3 26.6678 11.6956 26.6667 12.1667C26.6667 12.6389 26.5067 13.035 26.1867 13.355C25.8667 13.675 25.4711 13.8345 25 13.8333H6.66667Z" fill="white"/>
</g>
</svg>
