<svg width="33" height="32" viewBox="0 0 33 32" fill="none" xmlns="http://www.w3.org/2000/svg">
<g id="material-symbols:call-outline">
<path id="Vector" d="M26.767 28C23.9892 28 21.2448 27.3942 18.5337 26.1827C15.8225 24.9711 13.3559 23.2547 11.1337 21.0333C8.91144 18.8111 7.19499 16.3444 5.98433 13.6333C4.77366 10.9222 4.16788 8.17778 4.16699 5.4C4.16699 5 4.30033 4.66667 4.56699 4.4C4.83366 4.13333 5.16699 4 5.56699 4H10.967C11.2781 4 11.5559 4.10578 11.8003 4.31733C12.0448 4.52889 12.1892 4.77867 12.2337 5.06667L13.1003 9.73333C13.1448 10.0889 13.1337 10.3889 13.067 10.6333C13.0003 10.8778 12.8781 11.0889 12.7003 11.2667L9.46699 14.5333C9.91144 15.3556 10.439 16.1498 11.0497 16.916C11.6603 17.6822 12.3328 18.4213 13.067 19.1333C13.7559 19.8222 14.4781 20.4613 15.2337 21.0507C15.9892 21.64 16.7892 22.1787 17.6337 22.6667L20.767 19.5333C20.967 19.3333 21.2283 19.1831 21.551 19.0827C21.8737 18.9822 22.1901 18.9547 22.5003 19L27.1003 19.9333C27.4114 20.0222 27.667 20.1836 27.867 20.4173C28.067 20.6511 28.167 20.912 28.167 21.2V26.6C28.167 27 28.0337 27.3333 27.767 27.6C27.5003 27.8667 27.167 28 26.767 28ZM8.20033 12L10.4003 9.8L9.83366 6.66667H6.86699C6.9781 7.57778 7.13366 8.47778 7.33366 9.36667C7.53366 10.2556 7.82255 11.1333 8.20033 12ZM20.1337 23.9333C21.0003 24.3111 21.8839 24.6111 22.7843 24.8333C23.6848 25.0556 24.5901 25.2 25.5003 25.2667V22.3333L22.367 21.7L20.1337 23.9333Z" fill="white"/>
</g>
</svg>
