<svg width="32" height="33" viewBox="0 0 32 33" fill="none" xmlns="http://www.w3.org/2000/svg">
<g id="ic:round-close">
<path id="Vector" d="M24.3998 8.11333C24.2765 7.98972 24.1299 7.89166 23.9686 7.82475C23.8073 7.75784 23.6344 7.7234 23.4598 7.7234C23.2852 7.7234 23.1123 7.75784 22.951 7.82475C22.7897 7.89166 22.6432 7.98972 22.5198 8.11333L15.9998 14.62L9.47981 8.09999C9.35637 7.97655 9.20982 7.87863 9.04853 7.81182C8.88725 7.74502 8.71438 7.71063 8.53981 7.71063C8.36524 7.71063 8.19237 7.74502 8.03109 7.81182C7.8698 7.87863 7.72325 7.97655 7.59981 8.09999C7.47637 8.22344 7.37845 8.36998 7.31164 8.53127C7.24483 8.69255 7.21045 8.86542 7.21045 9.03999C7.21045 9.21457 7.24483 9.38743 7.31164 9.54872C7.37845 9.71 7.47637 9.85655 7.59981 9.97999L14.1198 16.5L7.59981 23.02C7.47637 23.1434 7.37845 23.29 7.31164 23.4513C7.24483 23.6126 7.21045 23.7854 7.21045 23.96C7.21045 24.1346 7.24483 24.3074 7.31164 24.4687C7.37845 24.63 7.47637 24.7765 7.59981 24.9C7.72325 25.0234 7.8698 25.1214 8.03109 25.1882C8.19237 25.255 8.36524 25.2894 8.53981 25.2894C8.71438 25.2894 8.88725 25.255 9.04853 25.1882C9.20982 25.1214 9.35637 25.0234 9.47981 24.9L15.9998 18.38L22.5198 24.9C22.6433 25.0234 22.7898 25.1214 22.9511 25.1882C23.1124 25.255 23.2852 25.2894 23.4598 25.2894C23.6344 25.2894 23.8072 25.255 23.9685 25.1882C24.1298 25.1214 24.2764 25.0234 24.3998 24.9C24.5233 24.7765 24.6212 24.63 24.688 24.4687C24.7548 24.3074 24.7892 24.1346 24.7892 23.96C24.7892 23.7854 24.7548 23.6126 24.688 23.4513C24.6212 23.29 24.5233 23.1434 24.3998 23.02L17.8798 16.5L24.3998 9.97999C24.9065 9.47333 24.9065 8.61999 24.3998 8.11333Z" fill="white"/>
</g>
</svg>
