<svg width="33" height="31" viewBox="0 0 33 31" fill="none" xmlns="http://www.w3.org/2000/svg">
<g id="material-symbols:mail-outline-rounded">
<path id="Vector" d="M5.83366 26.9081C5.10033 26.9081 4.47233 26.6314 3.94966 26.0779C3.42699 25.5245 3.16611 24.8601 3.16699 24.0845V7.14336C3.16699 6.36689 3.42833 5.70194 3.95099 5.14853C4.47366 4.59512 5.10122 4.31889 5.83366 4.31983H27.167C27.9003 4.31983 28.5283 4.59653 29.051 5.14994C29.5737 5.70336 29.8346 6.36783 29.8337 7.14336V24.0845C29.8337 24.861 29.5723 25.5259 29.0497 26.0794C28.527 26.6328 27.8994 26.909 27.167 26.9081H5.83366ZM27.167 9.96689L17.2003 16.5669C17.0892 16.6375 16.9723 16.6907 16.8497 16.7264C16.727 16.7622 16.6106 16.7796 16.5003 16.7787C16.3892 16.7787 16.2723 16.7612 16.1497 16.7264C16.027 16.6916 15.9106 16.6384 15.8003 16.5669L5.83366 9.96689V24.0845H27.167V9.96689ZM16.5003 14.2022L27.167 7.14336H5.83366L16.5003 14.2022ZM5.83366 10.3198V8.23747V8.27277V8.25583V10.3198Z" fill="white"/>
</g>
</svg>
