<svg width="33" height="32" viewBox="0 0 33 32" fill="none" xmlns="http://www.w3.org/2000/svg">
<g id="material-symbols:location-on-outline-rounded">
<path id="Vector" d="M16.8337 24.991C19.5448 22.5021 21.5559 20.2408 22.867 18.207C24.1781 16.1732 24.8337 14.3679 24.8337 12.791C24.8337 10.3688 24.0612 8.38567 22.5163 6.84167C20.9714 5.29767 19.0772 4.52522 16.8337 4.52433C14.5892 4.52433 12.6945 5.29678 11.1497 6.84167C9.60477 8.38655 8.83277 10.3697 8.83366 12.791C8.83366 14.3688 9.48921 16.1746 10.8003 18.2083C12.1114 20.2421 14.1225 22.503 16.8337 24.991ZM16.8337 27.6243C16.5225 27.6243 16.2114 27.5688 15.9003 27.4577C15.5892 27.3466 15.3114 27.1799 15.067 26.9577C13.6225 25.6243 12.3448 24.3243 11.2337 23.0577C10.1225 21.791 9.19499 20.5634 8.45099 19.375C7.7061 18.1857 7.13944 17.0412 6.75099 15.9417C6.36255 14.8421 6.16788 13.7919 6.16699 12.791C6.16699 9.45767 7.23944 6.80211 9.38433 4.82433C11.5292 2.84655 14.0123 1.85767 16.8337 1.85767C19.6559 1.85767 22.1394 2.84655 24.2843 4.82433C26.4292 6.80211 27.5012 9.45767 27.5003 12.791C27.5003 13.791 27.3057 14.8412 26.9163 15.9417C26.527 17.0421 25.9603 18.1866 25.2163 19.375C24.4723 20.5634 23.5448 21.791 22.4337 23.0577C21.3225 24.3243 20.0448 25.6243 18.6003 26.9577C18.3559 27.1799 18.0781 27.3466 17.767 27.4577C17.4559 27.5688 17.1448 27.6243 16.8337 27.6243ZM16.8337 15.191C17.567 15.191 18.195 14.9301 18.7177 14.4083C19.2403 13.8866 19.5012 13.2586 19.5003 12.5243C19.5003 11.791 19.239 11.163 18.7163 10.6403C18.1937 10.1177 17.5661 9.85678 16.8337 9.85767C16.1003 9.85767 15.4723 10.119 14.9497 10.6417C14.427 11.1643 14.1661 11.7919 14.167 12.5243C14.167 13.2577 14.4283 13.8857 14.951 14.4083C15.4737 14.931 16.1012 15.1919 16.8337 15.191Z" fill="white"/>
</g>
</svg>
