<svg width="14" height="26" viewBox="0 0 14 26" fill="none" xmlns="http://www.w3.org/2000/svg">
<path id="Vector" d="M8.88556 11.7369C9.66661 12.518 9.66661 13.7843 8.88556 14.5654L0.499772 22.9512C0.166439 23.2845 0.00510406 23.6734 0.0157709 24.1178C0.0264378 24.5623 0.198882 24.9512 0.533105 25.2845C0.866438 25.6178 1.25533 25.7845 1.69977 25.7845C2.14422 25.7845 2.5331 25.6178 2.86644 25.2845L13.1331 15.0512C13.3998 14.7845 13.5998 14.4845 13.7331 14.1512C13.8664 13.8178 13.9331 13.4845 13.9331 13.1512C13.9331 12.8178 13.8664 12.4845 13.7331 12.1512C13.5998 11.8178 13.3998 11.5178 13.1331 11.2512L2.86644 0.984496C2.5331 0.651163 2.13844 0.489829 1.68244 0.500496C1.22644 0.511163 0.832216 0.683607 0.499772 1.01783C0.166439 1.35116 -0.000227928 1.74005 -0.000227928 2.1845C-0.000227928 2.62894 0.166439 3.01783 0.499772 3.35116L8.88556 11.7369Z" fill="white"/>
</svg>
