<svg width="48" height="48" viewBox="0 0 48 48" fill="none" xmlns="http://www.w3.org/2000/svg">
<circle cx="24" cy="24" r="23" stroke="#0045AD" stroke-width="2"/>
<path d="M12 34.3889H35.8815V35.8816H12V34.3889Z" fill="#0045AD"/>
<path d="M34.4387 22.4979C34.4387 16.6768 29.7122 12 23.9408 12C18.1694 12 13.4429 16.6768 13.4429 22.4979V34.3889H34.389V22.4979H34.4387ZM33.4437 33.3938H14.438V22.4979C14.438 17.2738 18.6672 12.9951 23.9409 12.9951C29.1152 12.9951 33.4437 17.224 33.4437 22.4979V33.3938Z" fill="#0045AD"/>
<path d="M17.3238 16.428C15.8809 18.0201 14.9355 20.1595 14.9355 22.4979H23.3936L17.3238 16.428Z" fill="#0045AD"/>
<path d="M14.9355 23.2443H23.5429V27.7221H14.9355V23.2443Z" fill="#0045AD"/>
<path d="M14.9355 28.4185H23.5429V32.8963H14.9355V28.4185Z" fill="#0045AD"/>
<path d="M23.9409 13.4927C21.5527 13.4927 19.3636 14.438 17.7715 15.9305L23.9409 22.0999L30.1103 15.9305C28.5182 14.4379 26.3291 13.4927 23.9409 13.4927Z" fill="#0045AD"/>
<path d="M24.4883 22.4979H32.9463C32.9463 20.1595 32.0507 18.0201 30.5581 16.428L24.4883 22.4979Z" fill="#0045AD"/>
<path d="M24.3389 23.2443H32.9462V27.7221H24.3389V23.2443Z" fill="#0045AD"/>
<path d="M24.3389 28.4185H32.9462V32.8963H24.3389V28.4185Z" fill="#0045AD"/>
</svg>
