<svg aria-hidden="true" style="position: absolute; width: 0; height: 0; overflow: hidden;" version="1.1" xmlns="http://www.w3.org/2000/svg" xmlns:xlink="http://www.w3.org/1999/xlink">
<defs>
<symbol id="icon-burger" viewBox="0 0 31 32">
<path d="M5.203 23.805c-0.369 0-0.678-0.125-0.927-0.375s-0.374-0.558-0.373-0.926c0-0.369 0.125-0.678 0.375-0.927s0.558-0.374 0.926-0.373h14.309c0.369 0 0.678 0.125 0.927 0.375s0.374 0.558 0.373 0.926c0 0.369-0.125 0.678-0.375 0.928s-0.559 0.374-0.926 0.373h-14.309zM24.585 21.594l-4.683-4.683c-0.26-0.26-0.39-0.564-0.39-0.911s0.13-0.65 0.39-0.911l4.683-4.683c0.239-0.238 0.542-0.358 0.911-0.358s0.672 0.119 0.911 0.358c0.239 0.239 0.358 0.542 0.358 0.911s-0.119 0.672-0.358 0.911l-3.772 3.772 3.772 3.772c0.239 0.239 0.358 0.542 0.358 0.911s-0.119 0.672-0.358 0.911c-0.238 0.238-0.542 0.358-0.911 0.358s-0.672-0.119-0.911-0.358zM5.203 17.301c-0.369 0-0.678-0.125-0.927-0.375s-0.374-0.559-0.373-0.926c0-0.369 0.125-0.678 0.375-0.927s0.558-0.374 0.926-0.373h10.406c0.369 0 0.678 0.125 0.927 0.375s0.374 0.559 0.373 0.926c0 0.369-0.125 0.678-0.375 0.927s-0.559 0.374-0.926 0.373h-10.406zM5.203 10.797c-0.369 0-0.678-0.125-0.927-0.375s-0.374-0.558-0.373-0.926c0-0.369 0.125-0.678 0.375-0.928s0.558-0.374 0.926-0.373h14.309c0.369 0 0.678 0.125 0.927 0.375s0.374 0.559 0.373 0.926c0 0.369-0.125 0.678-0.375 0.927s-0.559 0.374-0.926 0.373h-14.309z"></path>
</symbol>
<symbol id="icon-axpendArrow" viewBox="0 0 64 32">
<path d="M28.64 28.64l-23.2-23.2c-0.32-0.32-0.559-0.666-0.717-1.037s-0.239-0.772-0.243-1.203c0-0.853 0.294-1.6 0.883-2.24s1.361-0.96 2.317-0.96h48.64c0.96 0 1.734 0.32 2.323 0.96s0.881 1.387 0.877 2.24c0 0.213-0.32 0.96-0.96 2.24l-23.2 23.2c-0.533 0.533-1.067 0.907-1.6 1.12s-1.12 0.32-1.76 0.32c-0.64 0-1.227-0.107-1.76-0.32s-1.067-0.587-1.6-1.12z"></path>
</symbol>
<symbol id="icon-service-icon" viewBox="0 0 32 32">
<path stroke-linejoin="miter" stroke-linecap="butt" stroke-miterlimit="4" stroke-width="1.3333" d="M31.333 16c0 8.468-6.865 15.333-15.333 15.333s-15.333-6.865-15.333-15.333c0-8.468 6.865-15.333 15.333-15.333s15.333 6.865 15.333 15.333z"></path>
<path d="M8 22.926h15.921v0.995h-15.921v-0.995z"></path>
<path d="M22.959 14.999c0-3.881-3.151-6.999-6.999-6.999s-6.999 3.118-6.999 6.999v7.927h13.964v-7.927h0.033zM22.296 22.263h-12.67v-7.264c0-3.483 2.819-6.335 6.335-6.335 3.45 0 6.335 2.819 6.335 6.335v7.264z"></path>
<path d="M11.549 10.952c-0.962 1.061-1.592 2.488-1.592 4.047h5.639l-4.047-4.047z"></path>
<path d="M9.957 15.496h5.738v2.985h-5.738v-2.985z"></path>
<path d="M9.957 18.946h5.738v2.985h-5.738v-2.985z"></path>
<path d="M15.961 8.995c-1.592 0-3.052 0.63-4.113 1.625l4.113 4.113 4.113-4.113c-1.061-0.995-2.521-1.625-4.113-1.625z"></path>
<path d="M16.326 14.999h5.639c0-1.559-0.597-2.985-1.592-4.047l-4.047 4.047z"></path>
<path d="M16.226 15.496h5.738v2.985h-5.738v-2.985z"></path>
<path d="M16.226 18.946h5.738v2.985h-5.738v-2.985z"></path>
</symbol>
</defs>
</svg>
