<svg width="18" height="18" viewBox="0 0 18 18" fill="none" xmlns="http://www.w3.org/2000/svg">
<g id="material-symbols:phone-forwarded-outline-rounded">
<path id="Vector" d="M13.6125 5.25005H10.5C10.2875 5.25005 10.1092 5.17805 9.96525 5.03405C9.82125 4.89005 9.7495 4.71205 9.75 4.50005C9.75 4.28755 9.822 4.1093 9.966 3.9653C10.11 3.8213 10.288 3.74955 10.5 3.75005H13.6125L12.975 3.11255C12.8375 2.97505 12.7655 2.80305 12.759 2.59655C12.7525 2.39005 12.8182 2.21205 12.9562 2.06255C13.1062 1.91255 13.2875 1.8343 13.5 1.8278C13.7125 1.8213 13.8938 1.8933 14.0438 2.0438L15.975 4.01255C16.125 4.16255 16.2 4.33755 16.2 4.53755C16.2 4.73755 16.125 4.91255 15.975 5.06255L14.025 6.97505C13.875 7.11255 13.7 7.1813 13.5 7.1813C13.3 7.1813 13.125 7.11255 12.975 6.97505C12.825 6.82505 12.7467 6.6468 12.7402 6.4403C12.7337 6.2338 12.8057 6.0558 12.9562 5.9063L13.6125 5.25005ZM14.9625 15.75C13.4 15.75 11.8562 15.4093 10.3312 14.7278C8.80625 14.0463 7.41875 13.0808 6.16875 11.8313C4.91875 10.5813 3.95325 9.1938 3.27225 7.6688C2.59125 6.1438 2.2505 4.60005 2.25 3.03755C2.25 2.81255 2.325 2.62505 2.475 2.47505C2.625 2.32505 2.8125 2.25005 3.0375 2.25005H6.075C6.25 2.25005 6.40625 2.30955 6.54375 2.42855C6.68125 2.54755 6.7625 2.68805 6.7875 2.85005L7.275 5.47505C7.3 5.67505 7.29375 5.8438 7.25625 5.9813C7.21875 6.1188 7.15 6.23755 7.05 6.33755L5.23125 8.17505C5.48125 8.63755 5.778 9.0843 6.1215 9.5153C6.465 9.9463 6.84325 10.362 7.25625 10.7625C7.64375 11.15 8.05 11.5095 8.475 11.841C8.9 12.1725 9.35 12.4755 9.825 12.75L11.5875 10.9875C11.7 10.875 11.847 10.7905 12.0285 10.734C12.21 10.6775 12.388 10.662 12.5625 10.6875L15.15 11.2125C15.325 11.2625 15.4688 11.3533 15.5812 11.4848C15.6937 11.6163 15.75 11.763 15.75 11.925V14.9625C15.75 15.1875 15.675 15.375 15.525 15.525C15.375 15.675 15.1875 15.75 14.9625 15.75ZM4.51875 6.75005L5.75625 5.51255L5.4375 3.75005H3.76875C3.83125 4.26255 3.91875 4.7688 4.03125 5.2688C4.14375 5.7688 4.30625 6.26255 4.51875 6.75005ZM11.2313 13.4625C11.7188 13.675 12.2157 13.8438 12.7222 13.9688C13.2287 14.0938 13.738 14.175 14.25 14.2125V12.5625L12.4875 12.2063L11.2313 13.4625Z" fill="white"/>
</g>
</svg>
