<svg width="1436" height="583" viewBox="0 0 1436 583" fill="none" xmlns="http://www.w3.org/2000/svg">
<path d="M-1708 -72C-1708 -73.1045 -1707.1 -74 -1706 -74H1514C1515.1 -74 1516 -73.1046 1516 -72V9767C1516 9768.1 1515.1 9769 1514 9769H-1706C-1707.1 9769 -1708 9768.1 -1708 9767V-72Z" fill="#404040"/>
<path d="M-1706 -73H1514V-75H-1706V-73ZM1515 -72V9767H1517V-72H1515ZM1514 9768H-1706V9770H1514V9768ZM-1707 9767V-72H-1709V9767H-1707ZM-1706 9768C-1706.55 9768 -1707 9767.55 -1707 9767H-1709C-1709 9768.66 -1707.66 9770 -1706 9770V9768ZM1515 9767C1515 9767.55 1514.55 9768 1514 9768V9770C1515.66 9770 1517 9768.66 1517 9767H1515ZM1514 -73C1514.55 -73 1515 -72.5522 1515 -72H1517C1517 -73.6569 1515.66 -75 1514 -75V-73ZM-1706 -75C-1707.66 -75 -1709 -73.6568 -1709 -72H-1707C-1707 -72.5523 -1706.55 -73 -1706 -73V-75Z" fill="white" fill-opacity="0.1"/>
<path d="M1440 1445H0V510.8C0 510.8 425.671 668.312 746 400.43C1075.62 124.777 1440 149.381 1440 149.381V1445Z" fill="#EBF6FF"/>
<path d="M0 392.097C566 658.031 772 238.446 1440 6V165.562C1440 165.562 1077.33 165.562 757 433.307C427.378 708.82 0 520.143 0 520.143V392.097Z" fill="#FFCE95"/>
<path d="M0 394.066C700 705.307 854 41.4566 1440 21.7578V170.63C1440 170.63 1089 69.4095 781 365.572C467.743 666.79 0 511.78 0 511.78V394.066Z" fill="#F7931E"/>
<path d="M0 388.156C760 687.577 746 68.7255 1440 7.96875V68.725C1440 68.725 1070.26 56.7998 886 260.179C490 697.273 0 441.344 0 441.344V388.156Z" fill="#0D4D8F"/>
</svg>
