<svg width="471" height="469" viewBox="0 0 471 469" fill="none" xmlns="http://www.w3.org/2000/svg">
<g clip-path="url(#clip0_59_18304)">
<path d="M377.464 138.973C373.14 136.912 368.809 135.217 364.58 133.95C351.184 129.907 338.411 127.853 326.61 127.853C290.844 127.853 262.356 146.797 244.231 182.639C239.368 192.253 235.883 201.807 233.399 210.154C233.064 210.138 232.741 210.103 232.406 210.103C228.807 210.103 225.401 210.921 222.334 212.337C221.535 210.079 220.983 207.759 220.7 205.359C218.542 187.202 231.769 170.323 233.198 168.557C254.477 148.512 265.388 127.527 265.644 106.176C265.915 82.972 253.437 66.7266 249.059 61.7507C300.031 66.8997 348.034 94.3044 377.464 138.973ZM86.4553 328.926C91.0741 331.188 95.7126 333.029 100.229 334.382C113.625 338.426 126.39 340.479 138.18 340.479H138.199C173.965 340.471 202.453 321.523 220.578 285.685C225.437 276.072 228.926 266.521 231.414 258.178C231.745 258.19 232.072 258.225 232.406 258.225C236.001 258.225 239.408 257.411 242.475 255.995C243.278 258.249 243.829 260.574 244.113 262.969C246.267 281.126 233.044 298.005 231.611 299.775C210.336 319.82 199.425 340.802 199.169 362.153C198.878 387.079 213.293 403.978 216.581 407.494C164.821 402.892 116.401 375.051 86.4553 328.926ZM324.948 363.832C321.085 376.715 313.174 390.073 302.905 400.646C302.224 401.346 301.531 402.038 300.83 402.715C289.498 413.631 275.59 421.1 261.163 421.1C254.122 421.1 247.251 419.358 240.581 415.92C236.683 413.914 232.855 411.329 229.107 408.163C227.055 406.424 225.02 404.532 223.019 402.451C222.858 402.294 207.025 386.422 207.312 362.251C207.537 343.13 217.652 324.045 237.376 305.518L237.691 305.192C238.392 304.366 254.859 284.714 252.205 262.072C251.764 258.3 250.799 254.689 249.362 251.236C251.653 248.962 253.488 246.228 254.725 243.192C275.094 249.332 302.681 261.608 318.317 285.233C332.169 306.167 334.406 332.608 324.948 363.832ZM414.028 226.722C411.898 230.683 409.157 234.581 405.803 238.405C404.287 240.131 402.668 241.846 400.9 243.542C400.747 243.699 385.134 259.236 361.296 259.236C341.939 259.236 322.609 249.131 303.846 229.204L303.52 228.889C302.807 228.288 285.863 214.107 265.337 214.107C259.729 214.107 254.433 215.146 249.472 217.203C247.192 214.914 244.452 213.092 241.412 211.865C243.782 203.975 247.074 195.018 251.594 186.112C268.483 152.847 293.727 135.984 326.61 135.984C337.611 135.984 349.593 137.919 362.237 141.739C369.907 144.032 378.121 147.969 385.878 153.169C391.052 156.635 396.014 160.667 400.467 165.147C408.968 173.698 415.615 183.882 418.289 194.92C420.947 205.898 419.509 216.526 414.028 226.722ZM139.861 104.496C143.306 93.026 149.961 81.1822 158.624 71.258C160.207 69.4446 161.856 67.6982 163.565 66.0264C174.973 54.8907 189.046 47.2321 203.65 47.2321C210.915 47.2321 218.011 49.0887 224.894 52.7548C228.867 54.871 232.773 57.5969 236.596 60.9325C238.34 62.4587 240.077 64.0951 241.79 65.8691C241.951 66.0304 257.835 82.0987 257.501 106.203C257.233 125.281 247.117 144.327 227.433 162.81L227.122 163.141C226.421 163.967 209.95 183.619 212.608 206.26C213.049 210.028 214.014 213.639 215.451 217.097C213.156 219.37 211.325 222.1 210.088 225.137C189.719 219.001 162.132 206.728 146.496 183.099C132.639 162.169 130.407 135.724 139.861 104.496ZM216.518 235.439C216.487 235.018 216.455 234.597 216.455 234.164C216.455 233.165 216.558 232.194 216.735 231.246C216.991 229.873 217.428 228.563 218.018 227.336C218.459 226.407 218.987 225.53 219.593 224.712C220.424 223.595 221.385 222.588 222.476 221.719C223.539 220.877 224.708 220.157 225.965 219.602C227.583 218.886 229.331 218.438 231.17 218.296C231.58 218.261 231.989 218.234 232.406 218.234C233.403 218.234 234.379 218.34 235.328 218.513C236.698 218.768 238.002 219.205 239.222 219.787C240.152 220.224 241.026 220.751 241.845 221.349C242.975 222.183 243.991 223.15 244.869 224.248C245.716 225.306 246.428 226.478 246.987 227.733C247.696 229.33 248.149 231.069 248.291 232.89C248.322 233.315 248.358 233.735 248.358 234.164C248.358 235.163 248.251 236.139 248.078 237.087C247.818 238.46 247.381 239.769 246.794 240.997C246.349 241.925 245.822 242.798 245.215 243.616C244.385 244.737 243.424 245.744 242.337 246.61C241.274 247.459 240.104 248.171 238.848 248.726C237.234 249.442 235.478 249.894 233.639 250.032C233.229 250.063 232.82 250.095 232.406 250.095C231.406 250.095 230.43 249.993 229.481 249.816C228.111 249.56 226.811 249.127 225.587 248.545C224.661 248.105 223.787 247.585 222.968 246.98C221.842 246.146 220.818 245.178 219.944 244.085C219.097 243.022 218.385 241.854 217.826 240.599C217.113 239.002 216.664 237.264 216.518 235.439ZM103.513 209.1C122.87 209.1 142.2 219.201 160.963 239.132L161.293 239.443C162.006 240.045 178.95 254.225 199.476 254.225H199.48C205.083 254.225 210.376 253.187 215.341 251.129C217.621 253.419 220.357 255.236 223.401 256.463C221.023 264.354 217.735 273.307 213.215 282.212C196.326 315.474 171.086 332.341 138.195 332.349H138.18C127.194 332.349 115.216 330.413 102.576 326.598C94.6219 324.214 86.0734 320.06 78.0682 314.573C72.8627 311.005 67.8896 306.863 63.4558 302.273C55.3837 293.914 49.1033 284.061 46.5241 273.409C43.9056 262.615 45.2444 252.144 50.5011 242.11C52.5723 238.157 55.242 234.274 58.5259 230.463C60.1679 228.551 61.9595 226.663 63.9086 224.791C64.0622 224.633 79.6787 209.1 103.513 209.1ZM38.6096 275.321C43.0079 293.462 56.2973 309.196 71.8744 320.249C73.5164 323.309 75.2489 326.342 77.0839 329.332C99.7684 366.295 134.974 393.979 176.225 407.286C192.389 412.502 209.084 415.389 225.815 415.983C236.895 424.77 248.744 429.231 261.163 429.231C294.12 429.231 323.44 397.169 332.744 366.177C342.935 332.518 340.356 303.764 325.082 280.713C307.776 254.591 278.083 241.481 256.453 235.096C256.461 234.786 256.501 234.483 256.501 234.164C256.501 230.577 255.682 227.182 254.272 224.118C257.784 222.871 261.474 222.238 265.337 222.238C281.882 222.238 296.459 233.637 298.097 234.963C318.404 256.463 339.667 267.363 361.296 267.363C384.169 267.363 400.156 255.087 405.058 250.775C401.4 289.131 385.17 326.204 357.264 355.025L357.866 341.639L349.219 349.538L348.349 369.009L367.84 369.886L376.491 361.987L362.442 361.362C389.568 333.631 407.303 297.423 412.563 258.725C413.355 252.911 413.847 247.07 414.068 241.237C428.995 222.71 429.137 205.127 426.199 193.008C421.722 174.524 408 158.539 392.041 147.458C390.556 144.732 389.005 142.034 387.383 139.382C364.43 101.99 328.752 74.153 286.915 61.0073C271.428 56.1415 255.485 53.3959 239.514 52.7508C228.288 43.692 216.258 39.1016 203.65 39.1016C170.688 39.1016 141.369 71.1636 132.069 102.156C121.878 135.815 124.453 164.569 139.727 187.619C157.037 213.741 186.73 226.852 208.36 233.236C208.348 233.547 208.316 233.85 208.316 234.164C208.316 237.756 209.127 241.15 210.545 244.214C207.029 245.461 203.335 246.095 199.476 246.095C182.927 246.095 168.354 234.695 166.715 233.37C146.405 211.869 125.142 200.965 103.513 200.965C79.7772 200.965 63.4558 214.194 59.2465 218.005C62.9636 178.717 79.9701 140.814 109.242 111.612L108.411 124.982L117.192 117.237L118.397 97.7777L98.9178 96.578L90.137 104.323L104.175 105.188C70.5671 138.36 52.21 182.411 50.4775 227.438C35.8178 245.835 35.6918 263.276 38.6096 275.321Z" fill="#D7ECFE"/>
<mask id="mask0_59_18304" style="mask-type:luminance" maskUnits="userSpaceOnUse" x="-8" y="267" width="473" height="202">
<path d="M-7.30859 267.1H464.447V468.708H-7.30859V267.1Z" fill="white"/>
</mask>
<g mask="url(#mask0_59_18304)">
<path d="M460.746 267.796C458.525 267.423 456.43 268.929 456.068 271.148C438.018 380.904 343.953 460.566 232.401 460.566C125.432 460.566 33.3432 386.026 10.8831 282.366L21.8493 290.182L19.9159 278.641L4.02379 267.324L-7.30469 283.196L-5.36739 294.737L2.76376 283.341C25.7475 391.116 121.337 468.696 232.401 468.696C288.409 468.696 342.65 448.675 385.121 412.325C427.135 376.365 455.182 326.697 464.101 272.465C464.467 270.251 462.963 268.158 460.746 267.796Z" fill="#D7ECFE"/>
</g>
<mask id="mask1_59_18304" style="mask-type:luminance" maskUnits="userSpaceOnUse" x="-1" y="-1" width="473" height="206">
<path d="M-0.251953 -0.349609H471.268V204.669H-0.251953V-0.349609Z" fill="white"/>
</mask>
<g mask="url(#mask1_59_18304)">
<path d="M461.192 181.162C449.643 131.336 421.659 86.1168 381.897 53.2996C339.973 18.6965 286.883 -0.357422 232.402 -0.357422C175.74 -0.357422 121.019 20.0732 78.3276 57.1819C36.0535 93.9248 8.28162 144.49 0.126848 199.567C-0.20391 201.789 1.33175 203.855 3.5565 204.185C3.75731 204.213 3.95813 204.228 4.15501 204.228C6.13956 204.228 7.87998 202.777 8.17924 200.755C24.4691 90.7387 120.865 7.7692 232.402 7.7692C337.516 7.7692 429.239 80.7515 453.085 182.256L441.996 174.625L444.119 186.138L460.196 197.191L471.265 181.135L469.134 169.625L461.192 181.162Z" fill="#D7ECFE"/>
</g>
</g>
<defs>
<clipPath id="clip0_59_18304">
<rect width="471" height="469" fill="white"/>
</clipPath>
</defs>
</svg>
