<svg width="41" height="40" viewBox="0 0 41 40" fill="none" xmlns="http://www.w3.org/2000/svg">
<g id="ep:menu">
<path id="Vector" d="M6.75 17.4995C6.41848 17.4995 6.10054 17.3678 5.86612 17.1333C5.6317 16.8989 5.5 16.581 5.5 16.2495V6.25195C5.5 5.92043 5.6317 5.60249 5.86612 5.36807C6.10054 5.13365 6.41848 5.00195 6.75 5.00195H16.75C17.0815 5.00195 17.3995 5.13365 17.6339 5.36807C17.8683 5.60249 18 5.92043 18 6.25195V16.2495C18 16.581 17.8683 16.8989 17.6339 17.1333C17.3995 17.3678 17.0815 17.4995 16.75 17.4995H6.75ZM24.25 17.4995C23.9185 17.4995 23.6005 17.3678 23.3661 17.1333C23.1317 16.8989 23 16.581 23 16.2495V6.25195C23 5.92043 23.1317 5.60249 23.3661 5.36807C23.6005 5.13365 23.9185 5.00195 24.25 5.00195H34.2475C34.579 5.00195 34.897 5.13365 35.1314 5.36807C35.3658 5.60249 35.4975 5.92043 35.4975 6.25195V16.2495C35.4975 16.581 35.3658 16.8989 35.1314 17.1333C34.897 17.3678 34.579 17.4995 34.2475 17.4995H24.25ZM6.75 34.9995C6.41848 34.9995 6.10054 34.8678 5.86612 34.6333C5.6317 34.3989 5.5 34.081 5.5 33.7495V23.7495C5.5 23.4179 5.6317 23.1 5.86612 22.8656C6.10054 22.6311 6.41848 22.4995 6.75 22.4995H16.75C17.0815 22.4995 17.3995 22.6311 17.6339 22.8656C17.8683 23.1 18 23.4179 18 23.7495V33.7495C18 34.081 17.8683 34.3989 17.6339 34.6333C17.3995 34.8678 17.0815 34.9995 16.75 34.9995H6.75ZM24.25 34.9995C23.9185 34.9995 23.6005 34.8678 23.3661 34.6333C23.1317 34.3989 23 34.081 23 33.7495V23.7495C23 23.4179 23.1317 23.1 23.3661 22.8656C23.6005 22.6311 23.9185 22.4995 24.25 22.4995H34.2475C34.579 22.4995 34.897 22.6311 35.1314 22.8656C35.3658 23.1 35.4975 23.4179 35.4975 23.7495V33.7495C35.4975 34.081 35.3658 34.3989 35.1314 34.6333C34.897 34.8678 34.579 34.9995 34.2475 34.9995H24.25Z" fill="#F7931E"/>
</g>
</svg>
