<svg width="57" height="56" viewBox="0 0 57 56" fill="none" xmlns="http://www.w3.org/2000/svg">
<g id="ant-design:file-done-outlined">
<path id="Vector" d="M38.293 17.0625V14.4375C38.293 14.1969 38.0961 14 37.8555 14H16.8555C16.6148 14 16.418 14.1969 16.418 14.4375V17.0625C16.418 17.3031 16.6148 17.5 16.8555 17.5H37.8555C38.0961 17.5 38.293 17.3031 38.293 17.0625ZM16.8555 21.875C16.6148 21.875 16.418 22.0719 16.418 22.3125V24.9375C16.418 25.1781 16.6148 25.375 16.8555 25.375H26.918C27.1586 25.375 27.3555 25.1781 27.3555 24.9375V22.3125C27.3555 22.0719 27.1586 21.875 26.918 21.875H16.8555ZM37.418 28.2188C30.8937 28.2188 25.6055 33.507 25.6055 40.0312C25.6055 46.5555 30.8937 51.8438 37.418 51.8438C43.9422 51.8438 49.2305 46.5555 49.2305 40.0312C49.2305 33.507 43.9422 28.2188 37.418 28.2188ZM43.2969 45.9102C41.7273 47.4797 39.6383 48.3438 37.418 48.3438C35.1977 48.3438 33.1086 47.4797 31.5391 45.9102C29.9695 44.3406 29.1055 42.2516 29.1055 40.0312C29.1055 37.8109 29.9695 35.7219 31.5391 34.1523C33.1086 32.5828 35.1977 31.7188 37.418 31.7188C39.6383 31.7188 41.7273 32.5828 43.2969 34.1523C44.8664 35.7219 45.7305 37.8109 45.7305 40.0312C45.7305 42.2516 44.8664 44.3406 43.2969 45.9102ZM42.2852 35.875H39.8625C39.7203 35.875 39.5891 35.9406 39.507 36.0555L36.0344 40.857L34.7711 39.1125C34.7306 39.0561 34.6772 39.0103 34.6154 38.9789C34.5535 38.9475 34.485 38.9314 34.4156 38.932H32.0039C31.6484 38.932 31.4406 39.3367 31.6484 39.6266L35.6844 45.2102C35.8594 45.4508 36.2148 45.4508 36.3898 45.2102L42.6352 36.5695C42.8484 36.2797 42.6406 35.875 42.2852 35.875ZM24.7305 46.5938H12.043V8.09375H42.668V26.9062C42.668 27.1469 42.8648 27.3438 43.1055 27.3438H46.168C46.4086 27.3438 46.6055 27.1469 46.6055 26.9062V5.90625C46.6055 4.93828 45.8234 4.15625 44.8555 4.15625H9.85547C8.8875 4.15625 8.10547 4.93828 8.10547 5.90625V48.7812C8.10547 49.7492 8.8875 50.5312 9.85547 50.5312H24.7305C24.9711 50.5312 25.168 50.3344 25.168 50.0938V47.0312C25.168 46.7906 24.9711 46.5938 24.7305 46.5938Z" fill="white"/>
</g>
</svg>
