<svg width="57" height="56" viewBox="0 0 57 56" fill="none" xmlns="http://www.w3.org/2000/svg">
<g id="mdi:facebook">
<path id="Vector" d="M28.2083 4.75977C15.375 4.75977 4.875 15.2364 4.875 28.1398C4.875 39.8064 13.415 49.4898 24.5683 51.2398V34.9064H18.6417V28.1398H24.5683V22.9831C24.5683 17.1264 28.045 13.9064 33.3883 13.9064C35.9317 13.9064 38.5917 14.3498 38.5917 14.3498V20.1131H35.6517C32.7583 20.1131 31.8483 21.9098 31.8483 23.7531V28.1398H38.335L37.285 34.9064H31.8483V51.2398C37.3467 50.3714 42.3535 47.566 45.9648 43.3299C49.5762 39.0938 51.5541 33.7063 51.5417 28.1398C51.5417 15.2364 41.0417 4.75977 28.2083 4.75977Z" fill="#F6F8FF"/>
</g>
</svg>
