<svg width="199" height="201" viewBox="0 0 199 201" fill="none" xmlns="http://www.w3.org/2000/svg">
<g id="1 (4) 1" clip-path="url(#clip0_91_14597)">
<path id="Vector" d="M67.2824 90.3173C53.8006 76.7105 37.0796 72.0517 19.93 77.247C-4.67745 84.7001 -0.219898 118.862 0.925661 125.635C3.12067 138.638 9.51606 156.531 20.3144 164.156C25.1668 167.58 30.6479 168.781 36.612 167.724C50.6938 165.229 52.1511 147.908 52.6992 141.39C52.7382 140.932 52.772 140.526 52.8057 140.179C54.1435 126.377 61.0454 118.69 68.4799 112.557C66.8382 108.606 65.9264 104.278 65.9264 99.7392C65.9264 96.4684 66.4044 93.3069 67.2824 90.3173Z" fill="#F7931E"/>
<path id="Vector_2" d="M99.3399 66.273C102.605 66.273 105.759 66.7522 108.743 67.6324C122.329 54.1298 126.984 37.3824 121.794 20.2027C114.352 -4.44312 80.2446 0.023023 73.483 1.16886C60.4999 3.36938 42.636 9.77563 35.0223 20.5907C31.6038 25.4501 30.4037 30.9423 31.4583 36.9137C33.9521 51.0152 51.2446 52.4762 57.7542 53.0256C58.2088 53.0647 58.6141 53.0985 58.9621 53.1324C72.74 54.4709 80.4161 61.385 86.5413 68.8303C90.4845 67.1845 94.807 66.273 99.3399 66.273Z" fill="#F7931E"/>
<path id="Vector_3" d="M99.3397 114.379C91.2792 114.379 84.7227 107.811 84.7227 99.7409C84.7227 91.668 91.2792 85.1003 99.3397 85.1003C107.398 85.1003 113.954 91.668 113.954 99.7409C113.954 107.811 107.398 114.379 99.3397 114.379ZM99.3397 70.082C83.0109 70.082 69.7266 83.3867 69.7266 99.7409C69.7266 116.092 83.0109 129.397 99.3397 129.397C115.666 129.397 128.95 116.092 128.95 99.7409C128.95 83.3867 115.666 70.082 99.3397 70.082Z" fill="#F7931E"/>
<g id="Clip path group">
<mask id="mask0_91_14597" style="mask-type:luminance" maskUnits="userSpaceOnUse" x="74" y="129" width="94" height="68">
<g id="a0579d9ace">
<path id="Vector_4" d="M74.7754 129.918H167.612V196.762H74.7754V129.918Z" fill="white"/>
</g>
</mask>
<g mask="url(#mask0_91_14597)">
<g id="Group">
<path id="Vector_5" d="M113.735 129.934C109.374 132.03 104.49 133.204 99.3391 133.204C95.3699 133.204 91.5592 132.504 88.0238 131.225C75.924 144.368 71.9444 160.322 76.8825 176.671C84.3248 201.316 118.429 196.85 125.193 195.704C138.176 193.507 156.04 187.1 163.654 176.285C167.073 171.426 168.273 165.934 167.218 159.962C164.724 145.858 147.434 144.4 140.925 143.85C140.468 143.811 140.062 143.777 139.717 143.743C127.111 142.52 119.611 136.629 113.735 129.934Z" fill="#F7931E"/>
</g>
</g>
</g>
<path id="Vector_6" d="M99.34 88.9062C93.3758 88.9062 88.5234 93.7656 88.5234 99.7396C88.5234 105.711 93.3758 110.57 99.34 110.57C105.304 110.57 110.154 105.711 110.154 99.7396C110.154 93.7656 105.304 88.9062 99.34 88.9062Z" fill="#F7931E"/>
<path id="Vector_7" d="M178.362 35.3229C173.51 31.8958 168.029 30.6953 162.064 31.7526C147.985 34.2474 146.525 51.5677 145.977 58.0859C145.938 58.5443 145.905 58.9505 145.871 59.2969C144.533 73.0989 137.631 80.7891 130.199 86.9219C131.838 90.8724 132.75 95.2005 132.75 99.7396C132.75 103.01 132.272 106.169 131.394 109.159C144.873 122.766 161.592 127.422 178.747 122.229C203.354 114.776 198.896 80.6146 197.751 73.8437C195.556 60.8385 189.16 42.9479 178.362 35.3229Z" fill="#F7931E"/>
</g>
<defs>
<clipPath id="clip0_91_14597">
<rect width="199" height="201" fill="white"/>
</clipPath>
</defs>
</svg>
