<svg width="269" height="92" viewBox="0 0 269 92" fill="none" xmlns="http://www.w3.org/2000/svg">
<path d="M97.3008 16.293H110.031L116.172 36.2448L122.537 16.293H134.821L121.309 47.8833H110.477L97.3008 16.293Z" fill="white"/>
<path d="M171.448 35.1373H146.993C147.216 37.1325 147.774 38.5735 148.556 39.4602C149.784 40.7904 151.236 41.4554 153.134 41.4554C154.363 41.4554 155.479 41.1229 156.596 40.5687C157.266 40.2361 157.936 39.5711 158.718 38.5735L170.778 39.6819C168.991 42.8964 166.758 45.1132 164.078 46.5542C161.509 47.8843 157.713 48.6602 152.911 48.6602C148.668 48.6602 145.429 48.106 142.973 46.8867C140.516 45.6675 138.506 43.7831 136.943 41.2337C135.379 38.6843 134.598 35.6916 134.598 32.1446C134.598 27.1566 136.161 23.1663 139.399 20.1735C142.638 17.1807 146.993 15.6289 152.576 15.6289C157.154 15.6289 160.728 16.294 163.408 17.6241C166.088 18.9542 168.098 20.9494 169.438 23.6096C170.778 26.159 171.448 29.5952 171.448 33.6964V35.1373ZM159.053 29.2626C158.829 26.9349 158.159 25.2723 157.154 24.2747C156.149 23.2771 154.809 22.7229 153.134 22.7229C151.236 22.7229 149.673 23.4988 148.444 25.0506C147.663 26.0482 147.216 27.3783 146.993 29.2626H159.053Z" fill="white"/>
<path d="M200.144 35.4708L211.758 36.801C211.088 39.2395 210.083 41.2347 208.631 43.0082C207.179 44.7817 205.281 46.1118 203.048 47.1094C200.814 48.107 197.911 48.5504 194.449 48.5504C191.099 48.5504 188.308 48.2178 186.074 47.6636C183.841 46.9986 181.943 46.001 180.268 44.6708C178.593 43.3407 177.364 41.6781 176.471 39.7937C175.578 37.9094 175.131 35.4708 175.131 32.3672C175.131 29.1528 175.689 26.3817 176.806 24.2757C177.588 22.7239 178.704 21.2829 180.156 20.0636C181.608 18.8443 183.059 17.8467 184.511 17.2925C186.856 16.2949 189.983 15.8516 193.668 15.8516C198.804 15.8516 202.824 16.7383 205.504 18.6226C208.184 20.507 210.194 23.1672 211.199 26.7142L199.698 28.266C199.363 26.9359 198.693 25.9383 197.688 25.2732C196.683 24.6082 195.454 24.2757 193.891 24.2757C191.881 24.2757 190.206 24.9407 188.978 26.3817C187.749 27.8226 187.079 30.0395 187.079 32.9214C187.079 35.4708 187.749 37.466 188.978 38.7961C190.206 40.1263 191.769 40.7913 193.668 40.7913C195.231 40.7913 196.571 40.3479 197.688 39.572C198.804 38.4636 199.586 37.2443 200.144 35.4708Z" fill="white"/>
<path d="M215.221 32.1446C215.221 27.3783 216.896 23.3879 220.134 20.2843C223.372 17.1807 227.839 15.6289 233.422 15.6289C239.787 15.6289 244.589 17.5132 247.827 21.1711C250.396 24.1638 251.736 27.7108 251.736 32.0337C251.736 36.9108 250.061 40.9012 246.822 44.0048C243.584 47.1084 239.117 48.6602 233.422 48.6602C228.286 48.6602 224.154 47.3301 221.027 44.7807C217.119 41.5663 215.221 37.3542 215.221 32.1446ZM227.392 32.1446C227.392 34.9157 227.951 37.0217 229.067 38.3518C230.184 39.6819 231.636 40.347 233.422 40.347C235.209 40.347 236.661 39.6819 237.777 38.3518C238.894 37.0217 239.452 34.9157 239.452 31.9229C239.452 29.1518 238.894 27.1566 237.777 25.8265C236.661 24.4964 235.209 23.8313 233.534 23.8313C231.747 23.8313 230.296 24.4964 229.179 25.8265C227.951 27.2675 227.392 29.3735 227.392 32.1446Z" fill="white"/>
<path d="M250.729 52.6523H107.461V55.2017H250.729V52.6523Z" fill="#F7931E"/>
<path d="M101.991 74.3748L99.9808 78.476H97.3008L104.559 64.0664H107.686L109.472 78.476H106.792L106.346 74.3748H101.991ZM106.346 72.3797L105.899 68.8327C105.787 68.0568 105.787 66.9483 105.676 66.0616C105.341 66.9483 104.894 67.9459 104.447 68.8327L102.661 72.3797H106.346Z" fill="white"/>
<path d="M111.148 78.478L113.158 68.0587H115.727L113.717 78.478H111.148ZM113.493 65.1768C113.493 64.2901 114.163 63.625 115.057 63.625C115.838 63.625 116.397 64.1792 116.397 64.9551C116.397 65.8419 115.727 66.5069 114.833 66.5069C114.052 66.5069 113.493 65.9527 113.493 65.1768Z" fill="white"/>
<path d="M116.283 78.4769L117.512 72.048C117.847 70.607 117.958 68.9444 118.07 68.0576H120.303C120.192 68.7227 120.192 69.4986 120.08 70.2745H120.192C120.862 68.8335 122.09 67.8359 123.542 67.8359C123.765 67.8359 123.877 67.8359 124.1 67.8359L123.653 70.2745C123.542 70.2745 123.318 70.2745 123.207 70.2745C121.42 70.2745 120.303 72.048 119.857 74.2649L119.075 78.4769H116.283Z" fill="white"/>
<path d="M130.131 64.2896C131.36 64.0679 132.588 63.957 133.928 63.957C136.273 63.957 138.06 64.5113 139.288 65.7305C140.293 66.6173 140.963 67.9474 140.963 69.9426C140.963 72.7137 139.846 75.1522 138.06 76.704C136.385 78.0341 134.263 78.6992 131.248 78.6992C129.685 78.6992 128.345 78.5884 127.451 78.4775L130.131 64.2896ZM130.355 76.4823C130.801 76.5932 131.36 76.5932 131.918 76.5932C133.928 76.5932 135.491 75.9281 136.496 74.8197C137.613 73.6004 138.171 71.9378 138.171 70.0534C138.171 67.6149 136.943 66.0631 133.816 66.0631C133.258 66.0631 132.588 66.0631 132.253 66.1739L130.355 76.4823Z" fill="white"/>
<path d="M152.463 68.0601L151.123 75.2649C150.9 76.4842 150.788 77.5926 150.565 78.4793H148.331L148.555 76.7058C147.55 78.036 146.21 78.8119 144.87 78.8119C143.306 78.8119 142.078 78.036 142.078 75.8191C142.078 75.2649 142.19 74.7107 142.301 73.9348L143.418 68.0601H145.875L144.758 73.7131C144.646 74.2673 144.535 74.7107 144.535 75.154C144.535 76.0408 144.87 76.595 145.875 76.595C146.991 76.595 148.443 75.2649 148.778 73.048L149.783 67.9492H152.463V68.0601Z" fill="white"/>
<path d="M160.616 78.1458C160.057 78.4784 158.941 78.7001 157.601 78.7001C154.921 78.7001 153.357 77.0374 153.357 74.488C153.357 70.8302 156.149 67.7266 160.057 67.7266C160.951 67.7266 161.844 67.9483 162.179 68.1699L161.509 70.1651C161.174 69.9434 160.616 69.8326 159.946 69.8326C157.489 69.8326 155.926 72.0495 155.926 74.2663C155.926 75.8181 156.819 76.7049 158.271 76.7049C159.276 76.7049 159.946 76.4832 160.504 76.2615L160.616 78.1458Z" fill="white"/>
<path d="M167.761 65.1758L167.203 68.0577H169.548L169.213 69.942H166.868L165.974 74.1541C165.863 74.5975 165.751 75.1517 165.751 75.5951C165.751 76.1493 165.974 76.4818 166.644 76.4818C166.979 76.4818 167.203 76.4818 167.538 76.4818L167.314 78.477C166.979 78.5878 166.309 78.6987 165.639 78.6987C163.964 78.6987 163.183 77.7011 163.183 76.5926C163.183 76.0384 163.294 75.3734 163.406 74.5975L164.299 69.942H162.848L163.183 68.0577H164.634L165.081 65.8408L167.761 65.1758Z" fill="white"/>
<path d="M183.731 78.0356C182.95 78.3681 181.61 78.7007 179.935 78.7007C176.138 78.7007 173.793 76.373 173.793 72.6043C173.793 69.6115 175.133 67.0621 177.255 65.5103C178.818 64.4019 180.605 63.8477 182.726 63.8477C184.29 63.8477 185.518 64.1802 185.853 64.5127L184.96 66.5079C184.513 66.2862 183.508 65.9537 182.168 65.9537C180.828 65.9537 179.488 66.3971 178.483 67.2838C177.255 68.3922 176.361 70.1657 176.361 72.2718C176.361 74.7103 177.59 76.4838 180.493 76.4838C181.498 76.4838 182.615 76.2621 183.396 75.9296L183.731 78.0356Z" fill="white"/>
<path d="M185.182 78.4785L188.085 63.293H190.542L187.638 78.4785H185.182Z" fill="white"/>
<path d="M198.583 77.9227C197.578 78.4769 196.126 78.6986 194.898 78.6986C191.995 78.6986 190.543 76.9251 190.543 74.3757C190.543 71.2721 192.888 67.8359 196.461 67.8359C198.583 67.8359 199.811 69.0552 199.811 70.7179C199.811 73.3781 197.02 74.2649 192.888 74.154C192.888 74.4865 192.888 75.2624 193.223 75.595C193.67 76.26 194.34 76.7034 195.345 76.7034C196.573 76.7034 197.466 76.3709 198.248 76.0383L198.583 77.9227ZM196.238 69.6094C194.675 69.6094 193.67 71.0504 193.335 72.2697C195.903 72.2697 197.578 71.9371 197.578 70.7179C197.578 70.0528 197.02 69.6094 196.238 69.6094Z" fill="white"/>
<path d="M207.403 78.4769C207.403 77.8118 207.515 77.0359 207.627 76.1492H207.515C206.51 78.0335 205.058 78.6986 203.718 78.6986C201.82 78.6986 200.592 77.2576 200.592 75.1516C200.592 71.6046 203.048 67.8359 207.962 67.8359C209.078 67.8359 210.307 68.0576 211.088 68.2793L209.972 73.7106C209.637 75.2624 209.525 77.2576 209.525 78.4769H207.403ZM208.408 69.8311C208.185 69.7203 207.85 69.7203 207.403 69.7203C205.058 69.7203 203.272 72.2697 203.272 74.7082C203.272 75.8167 203.718 76.7034 204.835 76.7034C205.952 76.7034 207.403 75.2624 207.962 72.6022L208.408 69.8311Z" fill="white"/>
<path d="M211.982 78.4769L213.322 71.2721C213.546 70.0528 213.769 68.9444 213.881 68.0576H216.114L215.891 69.942C216.896 68.501 218.236 67.8359 219.687 67.8359C221.139 67.8359 222.367 68.7227 222.367 70.7179C222.367 71.1612 222.256 71.9371 222.144 72.4914L221.027 78.5877H218.571L219.687 72.713C219.799 72.3805 219.799 71.8263 219.799 71.4938C219.799 70.607 219.464 69.942 218.459 69.942C217.342 69.942 215.891 71.2721 215.444 73.7106L214.551 78.4769H211.982Z" fill="white"/>
<path d="M223.596 78.478L225.606 68.0587H228.174L226.164 78.478H223.596ZM226.052 65.1768C226.052 64.2901 226.722 63.625 227.616 63.625C228.397 63.625 228.956 64.1792 228.956 64.9551C228.956 65.8419 228.286 66.5069 227.392 66.5069C226.499 66.5069 226.052 65.9527 226.052 65.1768Z" fill="white"/>
<path d="M228.846 78.4769L230.186 71.2721C230.409 70.0528 230.632 68.9444 230.744 68.0576H232.977L232.754 69.942C233.759 68.501 235.099 67.8359 236.551 67.8359C238.002 67.8359 239.231 68.7227 239.231 70.7179C239.231 71.1612 239.119 71.9371 239.007 72.4914L237.891 78.5877H235.434L236.551 72.713C236.662 72.3805 236.662 71.8263 236.662 71.4938C236.662 70.607 236.327 69.942 235.322 69.942C234.206 69.942 232.754 71.2721 232.307 73.7106L231.414 78.4769H228.846Z" fill="white"/>
<path d="M240.904 80.3612C241.574 80.6938 242.69 81.0263 243.695 81.0263C245.37 81.0263 246.599 80.2504 247.157 77.8118L247.38 76.5926C246.487 77.8118 245.37 78.4769 244.03 78.4769C241.909 78.4769 240.792 76.8143 240.68 74.8191C240.68 71.3829 243.249 67.8359 247.604 67.8359C248.944 67.8359 250.284 68.1685 251.289 68.6118L249.725 77.2576C249.39 79.2528 248.72 80.9155 247.604 81.9131C246.487 82.7998 245.035 83.0215 243.695 83.0215C242.355 83.0215 241.127 82.689 240.457 82.3564L240.904 80.3612ZM248.497 70.0528C248.274 69.942 247.715 69.8311 247.157 69.8311C244.924 69.8311 243.36 72.1588 243.36 74.4865C243.36 75.595 243.807 76.5926 245.035 76.5926C246.264 76.5926 247.492 75.1516 247.939 73.2673L248.497 70.0528Z" fill="white"/>
<path d="M92.7224 44.8945V53.6512C72.9574 53.6512 63.2424 57.1981 52.9691 60.856C51.7407 61.2994 50.6241 61.7427 49.3957 62.1861C45.4874 63.6271 41.3557 64.9572 36.5541 66.0656C31.1941 67.2849 25.0524 68.2825 17.4591 68.7259C14.6674 68.8367 11.6524 68.9475 8.41406 68.9475V60.1909C19.5807 60.1909 27.6207 59.0825 34.2091 57.4198C38.4524 56.4222 42.1374 55.0921 45.8224 53.762C46.6041 53.5403 47.2741 53.2078 48.0557 52.9861C59.1107 48.9957 70.5007 44.8945 92.7224 44.8945Z" fill="#F7931E"/>
<path d="M50.6237 0.445312L23.1537 15.0766V25.4959L50.6237 10.7537L83.4537 28.3778C65.2521 29.3754 54.6437 33.2549 45.0404 36.8019L44.4821 37.0236C43.9237 37.2453 43.4771 37.3562 42.9187 37.5778C39.1221 38.908 35.8837 40.0164 32.1987 40.9031C27.8437 42.0116 23.0421 42.6766 17.7937 43.12V36.2477V5.76579H8.52539V52.7634C19.6921 52.7634 27.7321 51.6549 34.3204 49.9923C38.5637 48.9947 42.2487 47.6646 45.9337 46.3345C46.7154 46.1128 47.3854 45.7802 48.1671 45.5586C59.1104 41.5682 70.3887 37.467 92.7221 37.467V23.0574L50.6237 0.445312Z" fill="#F7931E"/>
<path d="M92.7221 44.8945V53.6512C72.9571 53.6512 63.2421 57.1981 52.9687 60.856C51.7404 61.2994 50.6237 61.7427 49.3954 62.1861C45.4871 63.6271 41.3554 64.9572 36.5537 66.0656C31.1937 67.2849 25.0521 68.2825 17.4587 68.7259H8.52539V60.1909C19.6921 60.1909 27.7321 59.0825 34.3204 57.4198C38.5637 56.4222 42.2487 55.0921 45.9337 53.762C46.7154 53.5403 47.3854 53.2078 48.1671 52.9861C59.1104 48.9957 70.5004 44.8945 92.7221 44.8945Z" fill="#F7931E"/>
<path d="M92.7224 61.7422V70.4988C72.9574 70.4988 63.2424 74.0458 52.9691 77.7036C51.7407 78.147 50.6241 78.5904 49.3957 79.0338C45.4874 80.4747 41.3557 81.8048 36.5541 82.9133C29.2957 84.5759 20.4741 85.7952 8.41406 85.7952V77.0386C19.5807 77.0386 27.6207 75.9301 34.2091 74.2675C38.4524 73.2699 42.1374 71.9398 45.8224 70.6097C46.6041 70.388 47.2741 70.0554 48.0557 69.8338C49.0607 69.5012 50.0657 69.0579 51.0707 68.7253C61.3441 65.1783 72.5107 61.7422 92.7224 61.7422Z" fill="#F7931E"/>
</svg>
