<svg width="1440" height="578" viewBox="0 0 1440 578" fill="none" xmlns="http://www.w3.org/2000/svg">
<path d="M1440 576.684H0V514.984C0 514.984 425.671 672.495 746 404.614C1075.62 128.961 1440 153.565 1440 153.565V576.684Z" fill="#EBF6FF"/>
<path d="M0 386.097C566 652.031 772 232.446 1440 0V159.562C1440 159.562 1077.33 159.562 757 427.307C427.378 702.82 0 514.143 0 514.143V386.097Z" fill="#FFCE95"/>
<path d="M0 388.066C700 699.307 854 35.4566 1440 15.7578V164.63C1440 164.63 1089 63.4095 781 359.572C467.743 660.79 0 505.78 0 505.78V388.066Z" fill="#F7931E"/>
<path d="M0 382.156C760 681.577 746 62.7255 1440 1.96875V62.725C1440 62.725 1070.26 50.7998 886 254.179C490 691.273 0 435.344 0 435.344V382.156Z" fill="#0D4D8F"/>
</svg>
