<svg width="57" height="56" viewBox="0 0 57 56" fill="none" xmlns="http://www.w3.org/2000/svg">
<g id="mdi:instagram">
<path id="Vector" d="M18.4083 4.66602H38.0083C45.475 4.66602 51.5417 10.7327 51.5417 18.1993V37.7994C51.5417 41.3886 50.1158 44.8309 47.5778 47.3689C45.0399 49.9069 41.5976 51.3327 38.0083 51.3327H18.4083C10.9417 51.3327 4.875 45.266 4.875 37.7994V18.1993C4.875 14.6101 6.30083 11.1678 8.83882 8.62984C11.3768 6.09185 14.8191 4.66602 18.4083 4.66602ZM17.9417 9.33268C15.7138 9.33268 13.5773 10.2177 12.002 11.793C10.4267 13.3683 9.54167 15.5049 9.54167 17.7327V38.266C9.54167 42.9093 13.2983 46.666 17.9417 46.666H38.475C40.7028 46.666 42.8394 45.781 44.4147 44.2057C45.99 42.6304 46.875 40.4938 46.875 38.266V17.7327C46.875 13.0893 43.1183 9.33268 38.475 9.33268H17.9417ZM40.4583 12.8327C41.2319 12.8327 41.9737 13.14 42.5207 13.687C43.0677 14.2339 43.375 14.9758 43.375 15.7493C43.375 16.5229 43.0677 17.2648 42.5207 17.8117C41.9737 18.3587 41.2319 18.666 40.4583 18.666C39.6848 18.666 38.9429 18.3587 38.3959 17.8117C37.849 17.2648 37.5417 16.5229 37.5417 15.7493C37.5417 14.9758 37.849 14.2339 38.3959 13.687C38.9429 13.14 39.6848 12.8327 40.4583 12.8327ZM28.2083 16.3327C31.3025 16.3327 34.27 17.5618 36.4579 19.7498C38.6458 21.9377 39.875 24.9052 39.875 27.9993C39.875 31.0935 38.6458 34.061 36.4579 36.2489C34.27 38.4369 31.3025 39.666 28.2083 39.666C25.1141 39.666 22.1467 38.4369 19.9588 36.2489C17.7708 34.061 16.5417 31.0935 16.5417 27.9993C16.5417 24.9052 17.7708 21.9377 19.9588 19.7498C22.1467 17.5618 25.1141 16.3327 28.2083 16.3327ZM28.2083 20.9993C26.3518 20.9993 24.5713 21.7368 23.2586 23.0496C21.9458 24.3624 21.2083 26.1428 21.2083 27.9993C21.2083 29.8559 21.9458 31.6363 23.2586 32.9491C24.5713 34.2619 26.3518 34.9993 28.2083 34.9993C30.0648 34.9993 31.8453 34.2619 33.1581 32.9491C34.4708 31.6363 35.2083 29.8559 35.2083 27.9993C35.2083 26.1428 34.4708 24.3624 33.1581 23.0496C31.8453 21.7368 30.0648 20.9993 28.2083 20.9993Z" fill="#F6F8FF"/>
</g>
</svg>
