<svg width="24" height="24" viewBox="0 0 24 24" fill="none" xmlns="http://www.w3.org/2000/svg">
<g id="Vector">
<path id="Vector_2" d="M10.9041 22.9041V21.8082C8.621 21.5525 6.66192 20.6075 5.02685 18.9732C3.39178 17.3388 2.44676 15.3797 2.19178 13.0959H1.09589C0.785388 13.0959 0.525297 12.9907 0.315617 12.7803C0.105936 12.5699 0.000730594 12.3098 0 12C0 11.6895 0.105206 11.429 0.315617 11.2186C0.526027 11.0082 0.786119 10.9034 1.09589 10.9041H2.19178C2.44749 8.621 3.39288 6.66192 5.02795 5.02685C6.66301 3.39178 8.62173 2.44676 10.9041 2.19178V1.09589C10.9041 0.785388 11.0093 0.525297 11.2197 0.315617C11.4301 0.105936 11.6902 0.000730594 12 0C12.3105 0 12.571 0.105206 12.7814 0.315617C12.9918 0.526027 13.0966 0.786119 13.0959 1.09589V2.19178C15.379 2.44749 17.3381 3.39288 18.9732 5.02795C20.6082 6.66301 21.5532 8.62173 21.8082 10.9041H22.9041C23.2146 10.9041 23.4751 11.0093 23.6855 11.2197C23.8959 11.4301 24.0007 11.6902 24 12C24 12.3105 23.8952 12.571 23.6855 12.7814C23.4758 12.9918 23.2153 13.0966 22.9041 13.0959H21.8082C21.5525 15.379 20.6075 17.3381 18.9732 18.9732C17.3388 20.6082 15.3797 21.5532 13.0959 21.8082V22.9041C13.0959 23.2146 12.9907 23.4751 12.7803 23.6855C12.5699 23.8959 12.3098 24.0007 12 24C11.6895 24 11.429 23.8952 11.2186 23.6855C11.0082 23.4758 10.9034 23.2153 10.9041 22.9041ZM12 19.6712C14.1187 19.6712 15.9269 18.9224 17.4247 17.4247C18.9224 15.9269 19.6712 14.1187 19.6712 12C19.6712 9.88128 18.9224 8.07306 17.4247 6.57534C15.9269 5.07762 14.1187 4.32877 12 4.32877C9.88128 4.32877 8.07306 5.07762 6.57534 6.57534C5.07762 8.07306 4.32877 9.88128 4.32877 12C4.32877 14.1187 5.07762 15.9269 6.57534 17.4247C8.07306 18.9224 9.88128 19.6712 12 19.6712ZM12 16.3836C10.7945 16.3836 9.76256 15.9543 8.90411 15.0959C8.04566 14.2374 7.61644 13.2055 7.61644 12C7.61644 10.7945 8.04566 9.76256 8.90411 8.90411C9.76256 8.04566 10.7945 7.61644 12 7.61644C13.2055 7.61644 14.2374 8.04566 15.0959 8.90411C15.9543 9.76256 16.3836 10.7945 16.3836 12C16.3836 13.2055 15.9543 14.2374 15.0959 15.0959C14.2374 15.9543 13.2055 16.3836 12 16.3836Z" fill="#0D4D8F"/>
</g>
</svg>
