<svg width="130" height="45" viewBox="0 0 130 45" fill="none" xmlns="http://www.w3.org/2000/svg">
<path d="M46.8535 7.96875H53.0285L56.0077 17.7278L59.0952 7.96875H65.0535L58.4993 23.4206H53.2452L46.8535 7.96875Z" fill="#0D4D8F"/>
<path d="M82.8203 17.1867H70.9578C71.0661 18.1626 71.337 18.8674 71.7161 19.3012C72.312 19.9518 73.0161 20.2771 73.937 20.2771C74.5328 20.2771 75.0745 20.1144 75.6162 19.8433C75.9412 19.6807 76.2661 19.3554 76.6453 18.8674L82.4953 19.4096C81.6287 20.9819 80.5453 22.0662 79.2453 22.771C77.9995 23.4216 76.1578 23.8012 73.8287 23.8012C71.7703 23.8012 70.1995 23.5301 69.0078 22.9337C67.8161 22.3373 66.8411 21.4156 66.0828 20.1686C65.3245 18.9216 64.9453 17.4578 64.9453 15.7228C64.9453 13.2831 65.7036 11.3313 67.2745 9.86742C68.8453 8.40357 70.9578 7.64453 73.6661 7.64453C75.887 7.64453 77.6203 7.96983 78.9203 8.62044C80.2203 9.27104 81.1953 10.2469 81.8453 11.5481C82.4953 12.7951 82.8203 14.4759 82.8203 16.4819V17.1867ZM76.8078 14.3132C76.6995 13.1747 76.3745 12.3614 75.887 11.8734C75.3995 11.3855 74.7495 11.1144 73.937 11.1144C73.0161 11.1144 72.2578 11.4939 71.662 12.253C71.2828 12.7409 71.0661 13.3915 70.9578 14.3132H76.8078Z" fill="#0D4D8F"/>
<path d="M96.7408 17.3483L102.374 17.9989C102.049 19.1917 101.562 20.1676 100.857 21.0351C100.153 21.9026 99.2324 22.5532 98.1491 23.0411C97.0658 23.5291 95.6574 23.7459 93.9783 23.7459C92.3533 23.7459 90.9991 23.5833 89.9158 23.3122C88.8324 22.9869 87.9116 22.4989 87.0991 21.8483C86.2866 21.1977 85.6908 20.3845 85.2574 19.4628C84.8241 18.5411 84.6074 17.3483 84.6074 15.8303C84.6074 14.258 84.8783 12.9026 85.4199 11.8724C85.7991 11.1134 86.3408 10.4086 87.0449 9.81219C87.7491 9.21581 88.4533 8.72786 89.1574 8.45677C90.2949 7.96882 91.8116 7.75195 93.5991 7.75195C96.0908 7.75195 98.0408 8.18569 99.3408 9.10737C100.641 10.0291 101.616 11.3303 102.103 13.0652L96.5241 13.8242C96.3616 13.1736 96.0366 12.6857 95.5491 12.3604C95.0616 12.0351 94.4658 11.8724 93.7074 11.8724C92.7324 11.8724 91.9199 12.1977 91.3241 12.9026C90.7283 13.6074 90.4033 14.6917 90.4033 16.1013C90.4033 17.3483 90.7283 18.3242 91.3241 18.9748C91.9199 19.6254 92.6783 19.9508 93.5991 19.9508C94.3574 19.9508 95.0074 19.7339 95.5491 19.3544C96.0908 18.8122 96.4699 18.2158 96.7408 17.3483Z" fill="#0D4D8F"/>
<path d="M104.053 15.7228C104.053 13.3915 104.865 11.4397 106.436 9.92164C108.007 8.40357 110.174 7.64453 112.882 7.64453C115.969 7.64453 118.299 8.56622 119.869 10.3554C121.115 11.8192 121.765 13.5542 121.765 15.6686C121.765 18.0542 120.953 20.006 119.382 21.524C117.811 23.0421 115.644 23.8012 112.882 23.8012C110.39 23.8012 108.386 23.1506 106.869 21.9036C104.974 20.3313 104.053 18.271 104.053 15.7228ZM109.957 15.7228C109.957 17.0783 110.228 18.1084 110.769 18.759C111.311 19.4096 112.015 19.7349 112.882 19.7349C113.749 19.7349 114.453 19.4096 114.994 18.759C115.536 18.1084 115.807 17.0783 115.807 15.6144C115.807 14.259 115.536 13.2831 114.994 12.6325C114.453 11.9819 113.749 11.6566 112.936 11.6566C112.069 11.6566 111.365 11.9819 110.824 12.6325C110.228 13.3373 109.957 14.3674 109.957 15.7228Z" fill="#0D4D8F"/>
<path d="M121.279 25.7539H51.7832V27.0009H121.279V25.7539Z" fill="#F7931E"/>
<path d="M49.1285 36.3781L48.1535 38.3841H46.8535L50.3743 31.3359H51.891L52.7577 38.3841H51.4577L51.241 36.3781H49.1285ZM51.241 35.4022L51.0243 33.6673C50.9702 33.2877 50.9702 32.7456 50.916 32.3118C50.7535 32.7456 50.5368 33.2335 50.3202 33.6673L49.4535 35.4022H51.241Z" fill="#0C4D8F"/>
<path d="M53.5703 38.3842L54.5453 33.2878H55.7911L54.8161 38.3842H53.5703ZM54.7078 31.8782C54.7078 31.4444 55.0328 31.1191 55.4661 31.1191C55.8453 31.1191 56.1161 31.3902 56.1161 31.7697C56.1161 32.2035 55.7911 32.5288 55.3578 32.5288C54.9786 32.5288 54.7078 32.2577 54.7078 31.8782Z" fill="#0C4D8F"/>
<path d="M56.0625 38.3845L56.6583 35.2399C56.8208 34.5351 56.875 33.7219 56.9292 33.2881H58.0125C57.9583 33.6134 57.9583 33.9929 57.9042 34.3725H57.9583C58.2833 33.6676 58.8792 33.1797 59.5833 33.1797C59.6917 33.1797 59.7458 33.1797 59.8542 33.1797L59.6375 34.3725C59.5833 34.3725 59.475 34.3725 59.4208 34.3725C58.5542 34.3725 58.0125 35.2399 57.7958 36.3243L57.4167 38.3845H56.0625Z" fill="#0C4D8F"/>
<path d="M62.7785 31.4439C63.3743 31.3355 63.9702 31.2812 64.6202 31.2812C65.7577 31.2812 66.6244 31.5523 67.2202 32.1487C67.7077 32.5825 68.0327 33.2331 68.0327 34.209C68.0327 35.5644 67.491 36.7572 66.6243 37.5162C65.8118 38.1668 64.7827 38.4921 63.3202 38.4921C62.5618 38.4921 61.9118 38.4379 61.4785 38.3837L62.7785 31.4439ZM62.8868 37.4078C63.1035 37.462 63.3743 37.462 63.6452 37.462C64.6202 37.462 65.3785 37.1367 65.866 36.5945C66.4077 35.9981 66.6785 35.1849 66.6785 34.2632C66.6785 33.0704 66.0827 32.3114 64.566 32.3114C64.2952 32.3114 63.9702 32.3114 63.8077 32.3656L62.8868 37.4078Z" fill="#0C4D8F"/>
<path d="M73.6117 33.2886L72.9617 36.8127C72.8534 37.4091 72.7992 37.9512 72.6909 38.385H71.6075L71.7159 37.5175C71.2284 38.1681 70.5784 38.5476 69.9284 38.5476C69.1701 38.5476 68.5742 38.1681 68.5742 37.0838C68.5742 36.8127 68.6284 36.5416 68.6826 36.1621L69.2242 33.2886H70.4159L69.8742 36.0537C69.82 36.3247 69.7659 36.5416 69.7659 36.7585C69.7659 37.1922 69.9284 37.4633 70.4159 37.4633C70.9575 37.4633 71.6617 36.8127 71.8242 35.7284L72.3117 33.2344H73.6117V33.2886Z" fill="#0C4D8F"/>
<path d="M77.5658 38.2214C77.2949 38.384 76.7533 38.4925 76.1033 38.4925C74.8033 38.4925 74.0449 37.6792 74.0449 36.4322C74.0449 34.6431 75.3991 33.125 77.2949 33.125C77.7283 33.125 78.1616 33.2334 78.3241 33.3419L77.9991 34.3178C77.8366 34.2093 77.5658 34.1551 77.2408 34.1551C76.0491 34.1551 75.2908 35.2395 75.2908 36.3238C75.2908 37.0828 75.7241 37.5166 76.4283 37.5166C76.9158 37.5166 77.2408 37.4081 77.5116 37.2997L77.5658 38.2214Z" fill="#0C4D8F"/>
<path d="M81.0318 31.8789L80.7609 33.2885H81.8984L81.7359 34.2102H80.5984L80.1651 36.2705C80.1109 36.4873 80.0568 36.7584 80.0568 36.9753C80.0568 37.2464 80.1651 37.409 80.4901 37.409C80.6526 37.409 80.7609 37.409 80.9234 37.409L80.8151 38.3849C80.6526 38.4391 80.3276 38.4934 80.0026 38.4934C79.1901 38.4934 78.8109 38.0054 78.8109 37.4632C78.8109 37.1922 78.8651 36.8669 78.9193 36.4873L79.3526 34.2102H78.6484L78.8109 33.2885H79.5151L79.7318 32.2042L81.0318 31.8789Z" fill="#0C4D8F"/>
<path d="M88.7779 38.1683C88.3987 38.3309 87.7487 38.4936 86.9362 38.4936C85.0945 38.4936 83.957 37.355 83.957 35.5116C83.957 34.0478 84.607 32.8008 85.6362 32.0418C86.3945 31.4996 87.2612 31.2285 88.2904 31.2285C89.0487 31.2285 89.6445 31.3912 89.807 31.5538L89.3737 32.5297C89.157 32.4213 88.6695 32.2586 88.0195 32.2586C87.3695 32.2586 86.7195 32.4755 86.232 32.9092C85.6362 33.4514 85.2029 34.3189 85.2029 35.349C85.2029 36.5418 85.7987 37.4092 87.207 37.4092C87.6945 37.4092 88.2362 37.3008 88.6154 37.1382L88.7779 38.1683Z" fill="#0C4D8F"/>
<path d="M89.4824 38.3847L90.8908 30.957H92.0824L90.6741 38.3847H89.4824Z" fill="#0C4D8F"/>
<path d="M95.982 38.1134C95.4945 38.3845 94.7904 38.4929 94.1945 38.4929C92.7862 38.4929 92.082 37.6255 92.082 36.3785C92.082 34.8604 93.2195 33.1797 94.9529 33.1797C95.982 33.1797 96.5779 33.7761 96.5779 34.5893C96.5779 35.8905 95.2237 36.3243 93.2195 36.2701C93.2195 36.4327 93.2195 36.8122 93.382 36.9749C93.5987 37.3002 93.9237 37.517 94.4112 37.517C95.007 37.517 95.4404 37.3544 95.8195 37.1917L95.982 38.1134ZM94.8445 34.0472C94.0862 34.0472 93.5987 34.752 93.4362 35.3484C94.682 35.3484 95.4945 35.1857 95.4945 34.5893C95.4945 34.264 95.2237 34.0472 94.8445 34.0472Z" fill="#0C4D8F"/>
<path d="M100.261 38.3845C100.261 38.0592 100.315 37.6797 100.37 37.246H100.315C99.8279 38.1676 99.1237 38.4929 98.4737 38.4929C97.5529 38.4929 96.957 37.7881 96.957 36.758C96.957 35.0231 98.1487 33.1797 100.532 33.1797C101.074 33.1797 101.67 33.2881 102.049 33.3966L101.507 36.0532C101.345 36.8122 101.29 37.7881 101.29 38.3845H100.261ZM100.749 34.1556C100.64 34.1014 100.478 34.1014 100.261 34.1014C99.1237 34.1014 98.257 35.3484 98.257 36.5411C98.257 37.0833 98.4737 37.517 99.0154 37.517C99.557 37.517 100.261 36.8122 100.532 35.511L100.749 34.1556Z" fill="#0C4D8F"/>
<path d="M102.482 38.3845L103.132 34.8604C103.241 34.264 103.349 33.7219 103.403 33.2881H104.487L104.378 34.2098C104.866 33.505 105.516 33.1797 106.22 33.1797C106.924 33.1797 107.52 33.6134 107.52 34.5893C107.52 34.8062 107.466 35.1857 107.412 35.4568L106.87 38.4387H105.678L106.22 35.5652C106.274 35.4026 106.274 35.1315 106.274 34.9688C106.274 34.5351 106.112 34.2098 105.624 34.2098C105.082 34.2098 104.378 34.8604 104.162 36.0532L103.728 38.3845H102.482Z" fill="#0C4D8F"/>
<path d="M108.115 38.3842L109.09 33.2878H110.336L109.361 38.3842H108.115ZM109.307 31.8782C109.307 31.4444 109.632 31.1191 110.065 31.1191C110.444 31.1191 110.715 31.3902 110.715 31.7697C110.715 32.2035 110.39 32.5288 109.957 32.5288C109.524 32.5288 109.307 32.2577 109.307 31.8782Z" fill="#0C4D8F"/>
<path d="M110.662 38.3845L111.312 34.8604C111.42 34.264 111.529 33.7219 111.583 33.2881H112.666L112.558 34.2098C113.045 33.505 113.695 33.1797 114.4 33.1797C115.104 33.1797 115.7 33.6134 115.7 34.5893C115.7 34.8062 115.645 35.1857 115.591 35.4568L115.05 38.4387H113.858L114.4 35.5652C114.454 35.4026 114.454 35.1315 114.454 34.9688C114.454 34.5351 114.291 34.2098 113.804 34.2098C113.262 34.2098 112.558 34.8604 112.341 36.0532L111.908 38.3845H110.662Z" fill="#0C4D8F"/>
<path d="M116.512 39.3062C116.837 39.4688 117.378 39.6315 117.866 39.6315C118.678 39.6315 119.274 39.252 119.545 38.0592L119.653 37.4628C119.22 38.0592 118.678 38.3845 118.028 38.3845C116.999 38.3845 116.457 37.5713 116.403 36.5954C116.403 34.9146 117.649 33.1797 119.762 33.1797C120.412 33.1797 121.062 33.3423 121.549 33.5592L120.791 37.7881C120.628 38.764 120.303 39.5773 119.762 40.0652C119.22 40.499 118.516 40.6074 117.866 40.6074C117.216 40.6074 116.62 40.4448 116.295 40.2821L116.512 39.3062ZM120.195 34.264C120.087 34.2098 119.816 34.1556 119.545 34.1556C118.462 34.1556 117.703 35.2941 117.703 36.4327C117.703 36.9749 117.92 37.4628 118.516 37.4628C119.112 37.4628 119.707 36.758 119.924 35.8363L120.195 34.264Z" fill="#0C4D8F"/>
<path d="M44.6341 21.957V26.2402C35.0466 26.2402 30.3341 27.9751 25.3508 29.7643C24.7549 29.9811 24.2133 30.198 23.6174 30.4149C21.7216 31.1197 19.7174 31.7703 17.3883 32.3125C14.7883 32.9088 11.8091 33.3968 8.12578 33.6137C6.77161 33.6679 5.30911 33.7221 3.73828 33.7221V29.439C9.15495 29.439 13.0549 28.8968 16.2508 28.0835C18.3091 27.5956 20.0966 26.945 21.8841 26.2944C22.2633 26.1859 22.5883 26.0233 22.9674 25.9149C28.3299 23.9631 33.8549 21.957 44.6341 21.957Z" fill="#F7931E"/>
<path d="M24.2138 0.216797L10.8888 7.37342V12.4698L24.2138 5.25897L40.1388 13.8794C31.3096 14.3674 26.1638 16.265 21.5055 17.9999L21.2346 18.1084C20.9638 18.2168 20.7471 18.271 20.4763 18.3794C18.6346 19.0301 17.0638 19.5722 15.2763 20.006C13.1638 20.5481 10.8346 20.8734 8.2888 21.0903V17.7288V2.81921H3.79297V25.8072C9.20964 25.8072 13.1096 25.265 16.3055 24.4517C18.3638 23.9638 20.1513 23.3132 21.9388 22.6626C22.318 22.5541 22.643 22.3915 23.0221 22.2831C28.3305 20.3313 33.8013 18.3252 44.6346 18.3252V11.277L24.2138 0.216797Z" fill="#F7931E"/>
<path d="M44.6346 21.957V26.2402C35.0471 26.2402 30.3346 27.9751 25.3513 29.7643C24.7555 29.9811 24.2138 30.198 23.618 30.4149C21.7221 31.1197 19.718 31.7703 17.3888 32.3125C14.7888 32.9088 11.8096 33.3968 8.1263 33.6137H3.79297V29.439C9.20964 29.439 13.1096 28.8968 16.3055 28.0835C18.3638 27.5956 20.1513 26.945 21.9388 26.2944C22.318 26.1859 22.643 26.0233 23.0221 25.9149C28.3305 23.9631 33.8555 21.957 44.6346 21.957Z" fill="#F7931E"/>
<path d="M44.6341 30.1992V34.4824C35.0466 34.4824 30.3341 36.2173 25.3508 38.0064C24.7549 38.2233 24.2133 38.4402 23.6174 38.6571C21.7216 39.3619 19.7174 40.0125 17.3883 40.5546C13.8674 41.3679 9.58828 41.9643 3.73828 41.9643V37.6811C9.15495 37.6811 13.0549 37.139 16.2508 36.3257C18.3091 35.8378 20.0966 35.1872 21.8841 34.5366C22.2633 34.4281 22.5883 34.2655 22.9674 34.1571C23.4549 33.9944 23.9424 33.7775 24.4299 33.6149C29.4133 31.8799 34.8299 30.1992 44.6341 30.1992Z" fill="#F7931E"/>
</svg>
