<svg width="17" height="16" viewBox="0 0 17 16" fill="none" xmlns="http://www.w3.org/2000/svg">
<g id="zondicons:phone" clip-path="url(#clip0_275_11279)">
<path id="Vector" d="M16.209 14.678V15.198C16.209 15.4102 16.1247 15.6137 15.9747 15.7637C15.8246 15.9138 15.6212 15.998 15.409 15.998H13.809C10.202 15.998 6.74283 14.5652 4.19233 12.0147C1.64184 9.4642 0.208984 6.00499 0.208984 2.39805L0.208984 0.798047C0.208984 0.585874 0.29327 0.382391 0.443299 0.232361C0.593328 0.0823324 0.796811 -0.00195312 1.00898 -0.00195312L4.20898 -0.00195312C4.42116 -0.00195312 4.62464 0.0823324 4.77467 0.232361C4.9247 0.382391 5.00898 0.585874 5.00898 0.798047V3.99805C5.00898 4.44605 4.76098 5.04605 4.44898 5.35805L2.73698 7.07005C3.95298 9.95005 6.25698 12.254 9.13698 13.47L10.833 11.774C11.153 11.454 11.753 11.206 12.193 11.206H15.409C15.6198 11.2082 15.8212 11.2934 15.9695 11.4432C16.1178 11.593 16.201 11.7953 16.201 12.006V14.686L16.209 14.678Z" fill="#E4E4E4"/>
</g>
<defs>
<clipPath id="clip0_275_11279">
<rect width="16" height="16" fill="white" transform="translate(0.208984 -0.00195312)"/>
</clipPath>
</defs>
</svg>
