<svg width="57" height="56" viewBox="0 0 57 56" fill="none" xmlns="http://www.w3.org/2000/svg">
<g id="ant-design:safety-certificate-outlined">
<path id="Vector" d="M47.7426 9.29141L29.1598 2.95859C28.9355 2.88203 28.6348 2.84375 28.334 2.84375C28.0332 2.84375 27.7324 2.88203 27.5082 2.95859L8.92539 9.29141C8.47148 9.44453 8.09961 9.96953 8.09961 10.4508V36.832C8.09961 37.3133 8.41133 37.9477 8.78867 38.2484L27.6395 52.9375C27.8309 53.0852 28.077 53.1617 28.3285 53.1617C28.5801 53.1617 28.8316 53.0852 29.0176 52.9375L47.8684 38.2484C48.2457 37.9531 48.5574 37.3187 48.5574 36.832V10.4508C48.5684 9.96953 48.1965 9.45 47.7426 9.29141ZM44.6309 35.782L28.334 48.4805L12.0371 35.782V12.3977L28.334 6.84141L44.6309 12.3977V35.782ZM22.4387 24.7898C22.2746 24.5656 22.0121 24.4289 21.7277 24.4289H18.709C18.3535 24.4289 18.1457 24.8336 18.3535 25.1234L25.266 34.6391C25.3478 34.7509 25.4547 34.8419 25.5783 34.9047C25.7018 34.9674 25.8384 35.0001 25.977 35.0001C26.1155 35.0001 26.2521 34.9674 26.3756 34.9047C26.4992 34.8419 26.6062 34.7509 26.6879 34.6391L38.3145 18.632C38.5223 18.3422 38.3145 17.9375 37.959 17.9375H34.9402C34.6613 17.9375 34.3934 18.0742 34.2293 18.2984L25.977 29.6625L22.4387 24.7898Z" fill="white"/>
</g>
</svg>
