<svg width="1440" height="197" viewBox="0 0 1440 197" fill="none" xmlns="http://www.w3.org/2000/svg">
<rect width="1440" height="197" fill="#7A7D82"/>
<path d="M1440 -38.0766C870.119 85.9985 589 215.387 -4.25577e-05 -83V916.877C-4.25577e-05 916.877 299.505 1058.84 863.8 826.841C1151.8 708.433 1440 916.877 1440 916.877V-38.0766Z" fill="#F7FBFF"/>
<path d="M1440 73.8779C870.119 206.113 589 344.012 -4.25577e-05 26V1091.64C-4.25577e-05 1091.64 278.924 1161.09 883.841 1043.46C1152.4 991.238 1440 1091.64 1440 1091.64V73.8779Z" fill="#C4E4FF"/>
<path d="M1440 45.1832C870.119 169.07 589 298.262 0 0.328125V1078.56C0 1078.56 272.705 1191.99 837 960.337C1125 842.109 1440 927.233 1440 927.233V45.1832Z" fill="#D7ECFE"/>
</svg>
