<svg width="56" height="56" viewBox="0 0 56 56" fill="none" xmlns="http://www.w3.org/2000/svg">
<g id="fluent:timer-24-regular">
<path id="Vector" d="M27.9993 11.6673C33.2595 11.6673 38.3042 13.7569 42.0236 17.4764C45.7431 21.1958 47.8327 26.2405 47.8327 31.5007C47.8327 36.7608 45.7431 41.8055 42.0236 45.5249C38.3042 49.2444 33.2595 51.334 27.9993 51.334C22.7392 51.334 17.6945 49.2444 13.9751 45.5249C10.2556 41.8055 8.16602 36.7608 8.16602 31.5007C8.16602 26.2405 10.2556 21.1958 13.9751 17.4764C17.6945 13.7569 22.7392 11.6673 27.9993 11.6673ZM27.9993 15.1673C23.6675 15.1673 19.513 16.8881 16.4499 19.9512C13.3868 23.0143 11.666 27.1688 11.666 31.5007C11.666 35.8325 13.3868 39.987 16.4499 43.0501C19.513 46.1132 23.6675 47.834 27.9993 47.834C32.3312 47.834 36.4857 46.1132 39.5488 43.0501C42.6119 39.987 44.3327 35.8325 44.3327 31.5007C44.3327 27.1688 42.6119 23.0143 39.5488 19.9512C36.4857 16.8881 32.3312 15.1673 27.9993 15.1673ZM27.9993 18.6673C28.4222 18.6673 28.8308 18.8205 29.1495 19.0984C29.4682 19.3764 29.6755 19.7604 29.733 20.1793L29.7493 20.4173V30.9173C29.7492 31.3607 29.5808 31.7875 29.2781 32.1115C28.9754 32.4355 28.561 32.6325 28.1186 32.6627C27.6763 32.6929 27.2389 32.5541 26.895 32.2743C26.551 31.9945 26.3261 31.5946 26.2657 31.1553L26.2493 30.9173V20.4173C26.2493 19.9532 26.4337 19.5081 26.7619 19.1799C27.0901 18.8517 27.5352 18.6673 27.9993 18.6673ZM44.6757 11.9333L44.8694 12.0733L47.5714 14.3227C47.9097 14.6072 48.1278 15.0092 48.1818 15.448C48.2359 15.8867 48.1219 16.3297 47.8627 16.6878C47.6036 17.046 47.2185 17.2928 46.7848 17.3786C46.3512 17.4645 45.9011 17.383 45.525 17.1507L45.3337 17.0107L42.6294 14.7613C42.291 14.4768 42.0729 14.0747 42.0189 13.636C41.9648 13.1972 42.0788 12.7543 42.338 12.3961C42.5971 12.038 42.9822 11.7912 43.4159 11.7053C43.8495 11.6195 44.2996 11.7009 44.6757 11.9333ZM33.2494 5.83398C33.6927 5.83412 34.1195 6.00256 34.4435 6.30525C34.7675 6.60795 34.9645 7.02235 34.9947 7.4647C35.025 7.90706 34.8861 8.3444 34.6063 8.68835C34.3265 9.0323 33.9266 9.25721 33.4874 9.31765L33.2494 9.33398H22.7493C22.306 9.33385 21.8792 9.16541 21.5552 8.86271C21.2312 8.56002 21.0342 8.14562 21.004 7.70326C20.9737 7.26091 21.1126 6.82357 21.3924 6.47962C21.6722 6.13567 22.0721 5.91075 22.5113 5.85032L22.7493 5.83398H33.2494Z" fill="white"/>
</g>
</svg>
