<svg width="24" height="24" viewBox="0 0 24 24" fill="none" xmlns="http://www.w3.org/2000/svg">
<g id="zondicons:phone" clip-path="url(#clip0_53_16095)">
<path id="Vector" d="M24 22.02V22.8C24 23.1183 23.8736 23.4235 23.6485 23.6485C23.4235 23.8736 23.1183 24 22.8 24H20.4C14.9896 24 9.80076 21.8507 5.97502 18.025C2.14928 14.1992 0 9.01042 0 3.6L0 1.2C0 0.88174 0.126428 0.576516 0.351472 0.351472C0.576516 0.126428 0.88174 0 1.2 0L6 0C6.31826 0 6.62348 0.126428 6.84853 0.351472C7.07357 0.576516 7.2 0.88174 7.2 1.2V6C7.2 6.672 6.828 7.572 6.36 8.04L3.792 10.608C5.616 14.928 9.072 18.384 13.392 20.208L15.936 17.664C16.416 17.184 17.316 16.812 17.976 16.812H22.8C23.1162 16.8152 23.4183 16.943 23.6408 17.1677C23.8632 17.3924 23.988 17.6958 23.988 18.012V22.032L24 22.02Z" fill="#0D4D8F"/>
</g>
<defs>
<clipPath id="clip0_53_16095">
<rect width="24" height="24" fill="white"/>
</clipPath>
</defs>
</svg>
